<svg id="Camada_1" data-name="Camada 1" xmlns="http://www.w3.org/2000/svg" viewBox="0 0 337.66 389.81"><defs><style>.cls-1{fill:#21254d;}.cls-2{fill:#fff;}</style></defs><title>ComandaAberta</title><path class="cls-1" d="M98.29,40.33H378.15v126.2H359.52V60.37c-4.3-.33-7.53-.78-10.76-.79-73.71,0-147.41.06-221.12-.16-7.64,0-11.44,1.09-11.42,10.19.3,97.65.18,195.3.22,293,0,2.2.45,4.39.91,8.54,16,0,32,.51,47.88-.19,9.49-.42,11.29,3.65,11,11.93-.25,6.36-2.43,8.49-8.65,8.41q-30.86-.36-61.73,0c-6,.07-8.86-1.59-8.85-8.16q.23-168.92.23-337.85C97.2,43.81,97.82,42.38,98.29,40.33Z" transform="translate(-96.97 -40.33)"/><path class="cls-1" d="M338.28,392.2c-9-4.16-16.28-3.76-25,4.51-9.1,8.63-5.1,16.53-4.08,25.74l-18.27,7.68c-15.84-21.33-28.84-21.43-44,0l-18.24-7.46c.48-9.3,5.23-17.72-4.73-26.51-8.78-7.75-15.48-8.32-25.37-3.17-2.56-5.55-5.4-10-6.51-14.82-.6-2.6.86-7.09,3-8.67,13.61-10.33,13.41-27.52-.86-36.86-1.22-.8-2.34-1.77-4-3,1.1-3.18,2.3-6.22,3.2-9.36,2.26-7.92,6.37-10.74,14.86-7.55,7.14,2.69,23.38-11.11,23-18.62-.84-16.43-.84-16.43,16.49-21.36,5,7.45,8.22,15.54,21.25,15,11.95-.46,16.29-6.25,20.51-15.75l19.34,7.53a36.78,36.78,0,0,1-.34,5.91c-3.82,16.52,7.88,28.9,24.4,26.65,3.07-.42,7.53,2.69,9.86,5.44,2.49,2.94,3.21,7.38,5.28,12.65-15.37,3.83-15.88,15.47-14.6,27.72.27,2.62,1.31,5.89,3.18,7.51C348.38,375.63,348.65,377.24,338.28,392.2Zm-69.41-67.75c-14.62,0-27.33,12.78-27,27.21.3,14.19,12.6,26.11,26.95,26.1s26.61-11.73,26.94-26C296.07,337.14,283.6,324.47,268.87,324.45Z" transform="translate(-96.97 -40.33)"/><path class="cls-1" d="M434,257c-10.53.27-17.35,5.36-19.24,15.81-.42,2.33-1.23,5.8-.06,7,9.61,10,1.39,14.59-5.22,19.86-17.87-10.06-27.77-6.1-32.27,13.1h-15c-5.56-19.14-16.19-23.54-33.25-11.94L319.54,288c9.68-16.08,6.08-25.09-13.72-31.45-.75-8.1-4.37-17.08,10.06-17.63,5.62-.22,10.87-16.23,7.86-21.62a83.67,83.67,0,0,0-5.28-7.44c2.26-2.54,4.13-4.82,6.2-6.9,1.54-1.55,3.33-2.83,4.85-4.1,17.79,9.5,27.21,5.71,32.88-13.37H377.1c4.65,18.69,15.06,22.88,33.55,12.63l10.71,11.75c-10.24,7.48-8.13,16-2.7,24.5,1.25,2,3.44,4.79,5.15,4.76C437.56,238.91,434.46,248,434,257Zm-64.62,17a25.1,25.1,0,0,0,25.14-24.65c.11-13.36-11.46-25.1-24.81-25.19s-24.91,11.31-25,24.87A24.83,24.83,0,0,0,369.41,274Z" transform="translate(-96.97 -40.33)"/><path class="cls-2" d="M268.87,324.45c14.73,0,27.2,12.69,26.86,27.29-.33,14.29-12.47,26-26.94,26s-26.65-11.9-26.95-26.1C241.54,337.23,254.25,324.43,268.87,324.45Z" transform="translate(-96.97 -40.33)"/><path class="cls-2" d="M369.41,274a24.83,24.83,0,0,1-24.7-25c.12-13.55,11.6-25,25-24.87s24.92,11.83,24.81,25.19A25.1,25.1,0,0,1,369.41,274Z" transform="translate(-96.97 -40.33)"/><path class="cls-1" d="M169.73,234.91c-2.56,0-4.91,0-7.27,0-2.63,0-3.81-1.05-4.14-3.67-.27-2.12-.49-4.26-.74-6.38a4,4,0,0,0-5.65-3.47c-2.15.83-4.27,1.76-6.4,2.62s-3.77.4-5-1.7q-5.42-9.36-10.79-18.75c-1.22-2.13-.89-3.67,1.06-5.14s3.63-2.67,5.44-4c2.62-2,2.58-4.92-.08-6.88-1.82-1.34-3.65-2.65-5.44-4s-2.17-3-1-5q5.4-9.47,10.87-18.9c1.15-2,2.58-2.49,4.71-1.67s4.37,1.8,6.58,2.66c3,1.14,5.35-.31,5.71-3.43.24-2.07.47-4.14.72-6.21.35-2.85,1.43-3.81,4.32-3.81q10.41,0,20.82,0c3,0,4.06.85,4.48,3.85.31,2.18.5,4.37.78,6.55a3.78,3.78,0,0,0,5.31,3.22c2.27-.85,4.48-1.84,6.73-2.73s3.73-.42,5,1.72q5.38,9.29,10.73,18.6c1.3,2.27,1,3.85-1.13,5.41-1.81,1.35-3.64,2.66-5.45,4a3.85,3.85,0,0,0,0,6.54c1.88,1.44,3.82,2.8,5.7,4.24s2.18,3,1,5q-5.41,9.47-10.88,18.9c-1.17,2-2.69,2.5-4.88,1.64s-4.26-1.79-6.41-2.62a4,4,0,0,0-5.67,3.38c-.32,2.34-.55,4.7-.92,7a3.28,3.28,0,0,1-3.59,3.07c-2.47,0-4.95,0-7.53,0V248.3H268c0-.55,0-1.14,0-1.74,0-5.64,0-11.29,0-16.93,0-3.1,1.19-4.3,4.3-4.31,4.85,0,9.71,0,14.56,0h2.08v-2.08q0-37.08,0-74.15c0-.51,0-1,0-1.52a3.39,3.39,0,1,1,6.78.08c0,6.49,0,13,0,19.47q0,30.3,0,60.61a5.25,5.25,0,0,1-1.41,3.81q-9.95,11-19.82,22a4.84,4.84,0,0,1-3.86,1.7q-48.42,0-96.84,0c-2.88,0-4.08-1.22-4.08-4.14C169.72,245.77,169.73,240.47,169.73,234.91Zm-24.48-18.35c1.64-.65,3.18-1.32,4.76-1.87a10.93,10.93,0,0,1,14.1,7.45,17.31,17.31,0,0,1,.62,4c0,1.42.47,2,2,1.93,4-.1,8,0,12,0,2.61,0,2.67,0,2.79-2.64.42-9.1,9.09-13.63,16.35-10.09,1,.48,2,.84,3.1,1.28l8.14-14.14-3.2-2.4c-6.52-4.88-6.49-13.31.08-18.17.72-.54,1.43-1.11,2.19-1.59s.8-1,.35-1.81c-2.34-4-4.66-8-6.92-12-.52-.92-1-1-1.9-.57a37.61,37.61,0,0,1-3.76,1.49A10.72,10.72,0,0,1,182.13,160a23,23,0,0,1-.61-4.16c-.1-1.26-.47-1.88-1.93-1.85-3.95.1-7.9,0-11.84,0-2.67,0-2.67,0-3,2.71-.07.5-.2,1-.25,1.5a10.71,10.71,0,0,1-13.11,9.35c-1.73-.42-3.36-1.25-5.08-1.77a1.62,1.62,0,0,0-1.46.43c-2.59,4.35-5.1,8.75-7.68,13.23,1.42,1.08,2.8,2.05,4.08,3.13a10.8,10.8,0,0,1-.26,16.91c-1,.77-2,1.42-3,2.25a1.6,1.6,0,0,0-.32,1.48C140.13,207.71,142.67,212.09,145.24,216.56Zm129.92,25.83,9-10h-9Z" transform="translate(-96.97 -40.33)"/><path class="cls-1" d="M288.92,88.71H176.53c0,.66,0,1.26,0,1.86q0,12,0,24c0,2.12-.95,3.48-2.6,3.83a3.37,3.37,0,0,1-4.18-3.58c0-7.5,0-15,0-22.52,0-2.26,0-4.51,0-6.77,0-2.43,1.35-3.72,3.82-3.72H291.89c2.56,0,3.82,1.29,3.82,3.87q0,15.32,0,30.64c0,2.4-1.37,4-3.41,4s-3.37-1.61-3.37-4q0-12.78,0-25.56C288.92,90.14,288.92,89.52,288.92,88.71Z" transform="translate(-96.97 -40.33)"/><path class="cls-1" d="M207.11,139.19c-.17-1.79-.39-3.34-.44-4.9a3.39,3.39,0,0,1,6.75-.54c.24,1.67.42,3.35.61,5,.25,2.18.51,4.37.72,6.55.28,2.92-.67,4.19-3.57,4.65q-5.67.9-11.36,1.69c-2.25.31-3.78-.73-4.15-2.71s.82-3.49,3-4c1-.22,2.1-.34,3.16-.51l.17-.5c-3.31-1.42-6.53-3.13-9.95-4.21q-31.32-9.91-56.92,10.8A6.67,6.67,0,0,1,133,151.9a3.27,3.27,0,0,1-3.86-1.7,3.12,3.12,0,0,1,.87-4.11c4.19-3,8.22-6.44,12.79-8.75,21.09-10.63,42.13-10.22,62.89,1.17C206.08,138.73,206.48,138.89,207.11,139.19Z" transform="translate(-96.97 -40.33)"/><path class="cls-1" d="M233.35,109.57h33a15.33,15.33,0,0,1,1.86,0,3.35,3.35,0,0,1,1,6.38,7.82,7.82,0,0,1-2.64.38q-33.24,0-66.47,0c-.34,0-.68,0-1,0a3.53,3.53,0,0,1-3.6-3.48c0-2,1.46-3.32,3.7-3.32Q216.26,109.55,233.35,109.57Z" transform="translate(-96.97 -40.33)"/><path class="cls-1" d="M248.43,141.8H230c-2.61,0-4.09-1.27-4-3.47s1.49-3.32,4-3.32H267.2c2.42,0,4,1.36,4,3.38s-1.58,3.4-4,3.41Z" transform="translate(-96.97 -40.33)"/><path class="cls-1" d="M248.56,167.24c-6.32,0-12.64,0-19,0-2.4,0-3.81-1.47-3.67-3.65.13-1.89,1.62-3.14,3.89-3.15,4.68,0,9.37,0,14.05,0,7.79,0,15.57,0,23.36,0,2.55,0,4.2,1.63,3.94,3.79a3.38,3.38,0,0,1-3.65,3C261.2,167.25,254.88,167.24,248.56,167.24Z" transform="translate(-96.97 -40.33)"/><path class="cls-1" d="M248.62,211.39c6.15,0,12.3,0,18.45,0,1.56,0,2.92.31,3.72,1.81a3.32,3.32,0,0,1-2,4.78,7,7,0,0,1-2,.25q-18.28,0-36.56,0c-2.61,0-4.15-1.11-4.34-3.06a3.28,3.28,0,0,1,3.39-3.75c3.1-.08,6.21,0,9.31,0Z" transform="translate(-96.97 -40.33)"/><path class="cls-1" d="M248.54,192.72H230.77a14.39,14.39,0,0,1-2-.1,3.34,3.34,0,0,1-.55-6.47,8.45,8.45,0,0,1,2.34-.26q18,0,36.05,0a8.78,8.78,0,0,1,2,.18,3.34,3.34,0,0,1-.42,6.58c-1,.1-2,.07-3,.08Z" transform="translate(-96.97 -40.33)"/><path class="cls-1" d="M292.3,135.4a3.35,3.35,0,0,1-3.37-3.3,3.39,3.39,0,1,1,6.78.05A3.31,3.31,0,0,1,292.3,135.4Z" transform="translate(-96.97 -40.33)"/><path class="cls-2" d="M145.24,216.56c-2.57-4.47-5.12-8.85-7.59-13.28a1.6,1.6,0,0,1,.32-1.48c.9-.84,2-1.49,3-2.25a10.8,10.8,0,0,0,.26-16.91c-1.29-1.08-2.66-2-4.08-3.13,2.58-4.48,5.09-8.88,7.68-13.23a1.62,1.62,0,0,1,1.46-.43c1.72.51,3.35,1.35,5.08,1.77a10.71,10.71,0,0,0,13.11-9.35c.06-.5.18-1,.25-1.5.38-2.71.38-2.71,3-2.71,3.95,0,7.9.07,11.84,0,1.46,0,1.83.59,1.93,1.85a23,23,0,0,0,.61,4.16,10.72,10.72,0,0,0,13.81,7.35,37.61,37.61,0,0,0,3.76-1.49c.87-.4,1.39-.34,1.9.57,2.26,4,4.58,8,6.92,12,.46.78.46,1.3-.35,1.81s-1.46,1.05-2.19,1.59c-6.56,4.86-6.6,13.29-.08,18.17l3.2,2.4L201,216.57c-1.07-.43-2.11-.79-3.1-1.28-7.27-3.54-15.93,1-16.35,10.09-.12,2.64-.19,2.64-2.79,2.64-4,0-8-.07-12,0-1.51,0-1.94-.5-2-1.93a17.31,17.31,0,0,0-.62-4,10.93,10.93,0,0,0-14.1-7.45C148.43,215.24,146.89,215.91,145.24,216.56ZM173.16,210a19,19,0,0,0,19-19.16,19.06,19.06,0,1,0-38.12.44A18.93,18.93,0,0,0,173.16,210Z" transform="translate(-96.97 -40.33)"/><path class="cls-1" d="M275.16,242.39v-10h9Z" transform="translate(-96.97 -40.33)"/><path class="cls-1" d="M173.16,210a18.93,18.93,0,0,1-19.09-18.72A19.06,19.06,0,1,1,173.16,210Zm-.17-6.92A12.13,12.13,0,1,0,161,191,12.18,12.18,0,0,0,173,203.08Z" transform="translate(-96.97 -40.33)"/><path class="cls-2" d="M173,203.08a12.13,12.13,0,0,1,.15-24.25,12.13,12.13,0,1,1-.15,24.25Z" transform="translate(-96.97 -40.33)"/></svg>