<svg id="Camada_1" data-name="Camada 1" xmlns="http://www.w3.org/2000/svg" viewBox="0 0 304.81 383.35"><defs><style>.cls-1{fill:#20264c;}.cls-2{fill:#fff;}.cls-3{fill:#f8f7f7;}</style></defs><title>ComandaFechada</title><path class="cls-1" d="M91.35,45.65H360.61c.31,4.68.89,9.42.89,14.16.06,69.06.15,138.12-.1,207.18,0,8.6,1.9,14.58,8.42,20.55,31.79,29,35.13,79.43,8.2,112.91-27.43,34.1-74.63,38.08-107.53,9.7a28.66,28.66,0,0,0-17.14-6.59c-49.65-.51-99.3-.29-149-.29h-13ZM249.78,382c-10.36-32.17-8.17-61.43,12.64-86.78,21.08-25.69,48.5-32,79.23-25.5V66H109.93V382Zm62.49,10.18,55.45-59-16.85-17.25-40.08,46-19.9-27.57-16,17.63Z" transform="translate(-91.35 -45.65)"/><path class="cls-2" d="M312.27,392.15,274.86,352l16-17.63L310.79,362l40.08-46,16.85,17.25Z" transform="translate(-91.35 -45.65)"/><path class="cls-1" d="M171.94,241.32c-2.75,0-5.29,0-7.82,0-2.83,0-4.1-1.06-4.46-3.69-.29-2.14-.52-4.28-.79-6.42a4.34,4.34,0,0,0-6.08-3.49c-2.32.83-4.59,1.77-6.89,2.64s-4.06.41-5.37-1.71q-5.83-9.41-11.61-18.85c-1.31-2.15-1-3.69,1.14-5.17,1.94-1.37,3.91-2.69,5.85-4,2.82-2,2.77-5-.09-6.92-2-1.34-3.93-2.66-5.85-4s-2.34-3-1.07-5.05q5.81-9.52,11.69-19c1.24-2,2.78-2.51,5.06-1.68s4.7,1.81,7.07,2.67c3.18,1.15,5.75-.32,6.14-3.45.26-2.08.51-4.17.78-6.25.37-2.86,1.53-3.83,4.65-3.83q11.2,0,22.4,0c3.28,0,4.36.86,4.82,3.87.33,2.19.53,4.39.84,6.58.39,2.75,2.92,4.21,5.71,3.24,2.44-.85,4.82-1.85,7.24-2.74s4-.42,5.34,1.73q5.79,9.34,11.54,18.7c1.4,2.28,1,3.87-1.22,5.44-1.94,1.36-3.92,2.67-5.86,4-2.61,1.84-2.63,4.71,0,6.57,2,1.45,4.11,2.81,6.13,4.26s2.35,3,1.08,5.05q-5.82,9.52-11.71,19c-1.26,2-2.89,2.52-5.25,1.65s-4.58-1.8-6.89-2.63c-3-1.09-5.67.41-6.1,3.4-.34,2.36-.59,4.73-1,7.08-.35,2.07-1.64,3.06-3.86,3.08-2.66,0-5.32,0-8.1,0v13.46h98.27c0-.55,0-1.15,0-1.75,0-5.67,0-11.35,0-17,0-3.12,1.28-4.32,4.62-4.34,5.22,0,10.44,0,15.66,0h2.24v-2.09q0-37.28,0-74.56c0-.51,0-1,0-1.53a3.65,3.65,0,0,1,7.3.08c0,6.53,0,13.05,0,19.58q0,30.47,0,60.94a5.09,5.09,0,0,1-1.52,3.83q-10.7,11-21.32,22.14a5.37,5.37,0,0,1-4.15,1.71q-52.09,0-104.18,0c-3.09,0-4.39-1.23-4.39-4.16C171.93,252.24,171.94,246.91,171.94,241.32ZM145.6,222.87c1.77-.65,3.42-1.32,5.12-1.88,6.38-2.08,13.41,1.38,15.17,7.5a16.36,16.36,0,0,1,.66,4c0,1.43.51,2,2.13,1.94,4.31-.1,8.62,0,12.93,0,2.8,0,2.87,0,3-2.65.45-9.15,9.78-13.71,17.59-10.15,1.06.48,2.19.84,3.33,1.28l8.76-14.22-3.44-2.41c-7-4.91-7-13.38.08-18.27.78-.54,1.54-1.11,2.36-1.6s.86-1,.37-1.82c-2.52-4-5-8-7.45-12.07-.55-.92-1.11-1-2-.58a42.18,42.18,0,0,1-4,1.5c-6.34,2-13.1-1.35-14.86-7.39a21.69,21.69,0,0,1-.66-4.18c-.11-1.27-.5-1.89-2.08-1.86-4.25.1-8.49,0-12.74,0-2.87,0-2.87,0-3.28,2.73-.08.5-.21,1-.27,1.51-.77,6.49-7.34,10.92-14.1,9.4-1.87-.42-3.62-1.26-5.47-1.78a1.83,1.83,0,0,0-1.57.44c-2.79,4.37-5.48,8.8-8.26,13.3,1.53,1.09,3,2.07,4.39,3.15a10.43,10.43,0,0,1-.28,17c-1,.77-2.2,1.42-3.18,2.27a1.53,1.53,0,0,0-.35,1.49C140.09,214,142.83,218.37,145.6,222.87Zm139.77,26,9.68-10h-9.68Z" transform="translate(-91.35 -45.65)"/><path class="cls-1" d="M300.17,94.31H179.25c0,.67,0,1.27,0,1.87q0,12.09,0,24.17c0,2.13-1,3.5-2.8,3.85a3.55,3.55,0,0,1-4.5-3.6c0-7.55,0-15.09,0-22.64,0-2.27,0-4.54,0-6.81,0-2.45,1.45-3.74,4.11-3.74H303.36c2.75,0,4.11,1.3,4.11,3.89q0,15.41,0,30.81c0,2.42-1.48,4-3.67,4s-3.62-1.62-3.63-4.05q0-12.85,0-25.71C300.17,95.74,300.17,95.12,300.17,94.31Z" transform="translate(-91.35 -45.65)"/><path class="cls-1" d="M212.16,145.07c-.18-1.8-.42-3.36-.47-4.92a3.52,3.52,0,0,1,3.35-3.6,3.64,3.64,0,0,1,3.92,3.06c.25,1.68.45,3.37.66,5.06.27,2.2.55,4.39.77,6.59.3,2.93-.72,4.21-3.84,4.67q-6.1.91-12.22,1.69c-2.42.31-4.06-.74-4.47-2.73s.88-3.51,3.23-4c1.12-.22,2.26-.34,3.39-.51l.19-.5c-3.56-1.43-7-3.15-10.7-4.23q-33.69-10-61.24,10.86a7.28,7.28,0,0,1-2.28,1.32,3.6,3.6,0,0,1-4.15-1.71,3,3,0,0,1,.94-4.13c4.51-3,8.84-6.48,13.76-8.8,22.69-10.69,45.32-10.28,67.65,1.18C211,144.6,211.48,144.77,212.16,145.07Z" transform="translate(-91.35 -45.65)"/><path class="cls-1" d="M240.38,115.28h35.48a17.64,17.64,0,0,1,2,0,3.34,3.34,0,0,1,3.16,2.82,3.15,3.15,0,0,1-2.06,3.59,9,9,0,0,1-2.84.38q-35.76,0-71.51,0c-.36,0-.73,0-1.09,0-2.27-.11-3.9-1.58-3.88-3.5s1.58-3.33,4-3.34Q222,115.26,240.38,115.28Z" transform="translate(-91.35 -45.65)"/><path class="cls-1" d="M256.61,147.69H236.75c-2.81,0-4.39-1.28-4.35-3.49s1.61-3.34,4.33-3.34H276.8c2.6,0,4.31,1.37,4.32,3.4s-1.7,3.42-4.29,3.43Z" transform="translate(-91.35 -45.65)"/><path class="cls-1" d="M256.75,173.27c-6.8,0-13.6,0-20.4,0-2.58,0-4.1-1.48-3.95-3.67.13-1.9,1.75-3.16,4.18-3.17,5,0,10.08,0,15.12,0q12.57,0,25.13,0c2.74,0,4.52,1.64,4.24,3.81-.24,1.84-1.71,3-3.93,3C270.35,173.28,263.55,173.27,256.75,173.27Z" transform="translate(-91.35 -45.65)"/><path class="cls-1" d="M256.81,217.67c6.62,0,13.23,0,19.85,0,1.68,0,3.14.31,4,1.82a3.28,3.28,0,0,1-2.1,4.81,8,8,0,0,1-2.15.26q-19.67,0-39.33,0c-2.81,0-4.47-1.12-4.67-3.08s1.25-3.71,3.64-3.77c3.34-.08,6.68,0,10,0Z" transform="translate(-91.35 -45.65)"/><path class="cls-1" d="M256.73,198.9H237.61a16.55,16.55,0,0,1-2.18-.1,3.35,3.35,0,0,1-3-2.95,3.26,3.26,0,0,1,2.43-3.56,9.7,9.7,0,0,1,2.51-.27q19.39,0,38.79,0a10.09,10.09,0,0,1,2.16.18,3.38,3.38,0,0,1,2.8,3.49,3.44,3.44,0,0,1-3.26,3.13c-1.08.1-2.18.07-3.27.08Z" transform="translate(-91.35 -45.65)"/><path class="cls-1" d="M303.81,141.25a3.49,3.49,0,0,1-3.62-3.31,3.65,3.65,0,0,1,7.29.05A3.47,3.47,0,0,1,303.81,141.25Z" transform="translate(-91.35 -45.65)"/><path class="cls-3" d="M145.6,222.87c-2.77-4.5-5.51-8.9-8.16-13.35a1.53,1.53,0,0,1,.35-1.49c1-.84,2.13-1.49,3.18-2.27a10.43,10.43,0,0,0,.28-17c-1.38-1.08-2.86-2.06-4.39-3.15,2.78-4.5,5.48-8.93,8.26-13.3a1.83,1.83,0,0,1,1.57-.44c1.85.52,3.6,1.36,5.47,1.78,6.76,1.52,13.33-2.91,14.1-9.4.06-.51.2-1,.27-1.51.41-2.73.41-2.73,3.28-2.73,4.25,0,8.5.07,12.74,0,1.57,0,2,.59,2.08,1.86a21.69,21.69,0,0,0,.66,4.18c1.76,6,8.53,9.38,14.86,7.39a42.18,42.18,0,0,0,4-1.5c.94-.41,1.49-.35,2,.58,2.44,4,4.93,8.06,7.45,12.07.49.78.49,1.31-.37,1.82s-1.58,1.06-2.36,1.6c-7.06,4.89-7.1,13.36-.08,18.27l3.44,2.41-8.76,14.22c-1.15-.44-2.27-.8-3.33-1.28-7.82-3.56-17.14,1-17.59,10.15-.13,2.65-.2,2.65-3,2.65-4.31,0-8.62-.07-12.93,0-1.63,0-2.09-.5-2.13-1.94a16.36,16.36,0,0,0-.66-4c-1.76-6.12-8.79-9.58-15.17-7.5C149,221.54,147.36,222.21,145.6,222.87Zm30-6.59c11.43,0,20.51-8.58,20.47-19.27,0-10.45-9.38-19.12-20.59-19.09-11.38,0-20.46,8.71-20.43,19.54C155.13,207.86,164.34,216.31,175.63,216.27Z" transform="translate(-91.35 -45.65)"/><path class="cls-1" d="M285.37,248.84v-10H295Z" transform="translate(-91.35 -45.65)"/><path class="cls-1" d="M175.63,216.27c-11.29,0-20.5-8.41-20.54-18.83,0-10.82,9-19.51,20.43-19.54,11.21,0,20.55,8.64,20.59,19.09C196.14,207.69,187.07,216.23,175.63,216.27Zm-.18-7c7.27,0,13.13-5.34,13.22-12.09s-5.92-12.28-13.06-12.29-13.09,5.51-13.1,12.23S168.33,209.29,175.45,209.31Z" transform="translate(-91.35 -45.65)"/><path class="cls-2" d="M175.45,209.31c-7.11,0-12.95-5.5-12.94-12.15s5.92-12.25,13.1-12.23,13.16,5.67,13.06,12.29S182.71,209.33,175.45,209.31Z" transform="translate(-91.35 -45.65)"/></svg>