<svg id="Camada_1" data-name="Camada 1" xmlns="http://www.w3.org/2000/svg" viewBox="0 0 320.69 264.93"><defs><style>.cls-1{fill:#20264c;}.cls-2{fill:#fff;}</style></defs><title>estoque</title><path d="M188.77,359.26c0,4.35,0,8.49,0,12.63,0,4.51-1.15,5.68-5.54,5.68H122.35c-4.55,0-5.37-.82-5.38-5.34,0-4.24,0-8.48,0-13.17H102.07c-5.53,0-6.4-.86-6.4-6.31q0-95.62,0-191.24c0-5.14.85-6,6.07-6H410.29c5.2,0,6.06.85,6.06,6q0,95.77,0,191.54c0,5-1,6-6.12,6H395c0,4.74,0,9.26,0,13.78,0,3.68-1.05,4.72-4.8,4.72q-31,0-62.07,0c-3.52,0-4.86-1.29-4.91-4.8-.07-4.43,0-8.87,0-13.5ZM408.92,163.16H103.09v188.2H408.92Zm-284.67,207h56.81V359.29H124.25Zm206.63,0h56.78V359.32H330.88Z" transform="translate(-95.66 -112.64)"/><path d="M256,112.65H410.45c5,0,5.89.85,5.89,5.81q0,12,0,24.06c0,4.59-.94,5.53-5.62,5.53h-308c-1.09,0-2.18,0-3.27,0-2.47-.19-3.8-1.54-3.8-4,0-9.11-.05-18.22,0-27.32,0-2.87,1.43-4,4.7-4q16.33,0,32.67,0H256Zm73.11,7.41H182.93v20.37H329.13Zm-204.06.05h-22v20.31h22Zm283.79,20.36V120.06H387v20.41ZM162.54,120.05H145.6v20.3h16.94Zm187,0v20.35h16.88V120Zm-211.9,20.39V120.18h-5v20.25Zm37.48,0V120.14h-5v20.32ZM337,120v20.39h4.85V120Zm37.37,20.37h5V120.08h-5Z" transform="translate(-95.66 -112.64)"/><path class="cls-1" d="M408.92,163.16v188.2H103.09V163.16ZM355,341.38q17.66,0,35.33,0c3.82,0,4.71-.9,4.72-4.73q0-18.26,0-36.52c0-4.08-1-5.07-5.07-5.07H320.19c-3.95,0-5.15,1.18-5.16,5.13q0,18.11,0,36.22c0,3.89,1.1,5,4.92,5Q337.47,341.39,355,341.38ZM256.16,211.9q18.71,0,37.42,0c3.52,0,4.64-1.11,4.65-4.57q0-14.4,0-28.81c0-3.66-1.08-4.71-4.81-4.71q-37.27,0-74.54,0c-3.65,0-4.95,1.3-5,5q0,14,0,27.92c0,3.91,1.24,5.15,5.12,5.15Q237.6,211.91,256.16,211.9Z" transform="translate(-95.66 -112.64)"/><path class="cls-2" d="M124.25,370.12V359.29h56.81v10.83Z" transform="translate(-95.66 -112.64)"/><path class="cls-2" d="M330.88,370.08V359.32h56.78v10.76Z" transform="translate(-95.66 -112.64)"/><path class="cls-1" d="M329.13,120.06v20.37H182.93V120.06Z" transform="translate(-95.66 -112.64)"/><path class="cls-1" d="M125.06,120.11v20.31h-22V120.11Z" transform="translate(-95.66 -112.64)"/><path class="cls-1" d="M408.86,140.47H387V120.06h21.86Z" transform="translate(-95.66 -112.64)"/><path class="cls-1" d="M162.54,120.05v20.3H145.6v-20.3Z" transform="translate(-95.66 -112.64)"/><path class="cls-1" d="M349.55,120h16.88v20.35H349.55Z" transform="translate(-95.66 -112.64)"/><path class="cls-2" d="M137.65,140.43h-5V120.18h5Z" transform="translate(-95.66 -112.64)"/><path class="cls-2" d="M175.13,140.47h-5V120.14h5Z" transform="translate(-95.66 -112.64)"/><path class="cls-2" d="M337,120h4.85v20.39H337Z" transform="translate(-95.66 -112.64)"/><path class="cls-2" d="M374.32,140.39V120.08h5v20.31Z" transform="translate(-95.66 -112.64)"/><path d="M355,341.38q-17.52,0-35,0c-3.82,0-4.91-1.08-4.92-5q0-18.11,0-36.22c0-4,1.21-5.13,5.16-5.13H390c4.09,0,5.07,1,5.07,5.07q0,18.26,0,36.52c0,3.83-.9,4.73-4.72,4.73Q372.65,341.39,355,341.38Zm32.66-7.29V302.52h-65v31.56Z" transform="translate(-95.66 -112.64)"/><path d="M256.16,211.9q-18.56,0-37.12,0c-3.87,0-5.11-1.24-5.12-5.15q0-14,0-27.92c0-3.72,1.3-5,5-5q37.27,0,74.54,0c3.73,0,4.8,1.05,4.81,4.71q0,14.4,0,28.81c0,3.46-1.13,4.56-4.65,4.57Q274.87,211.92,256.16,211.9Zm34.75-30.61H221.72v23.19h69.19Z" transform="translate(-95.66 -112.64)"/><path class="cls-2" d="M387.65,334.08h-65V302.52h65Zm-7.44-15.9a10.32,10.32,0,0,0-10.34-10.34,10.44,10.44,0,0,0-10.5,10.55,10.42,10.42,0,1,0,20.84-.21Zm-39.9-10.34a10.53,10.53,0,0,0-10.37,10.43,10.51,10.51,0,1,0,21,0A10.6,10.6,0,0,0,340.3,307.85Z" transform="translate(-95.66 -112.64)"/><path class="cls-2" d="M290.91,181.28v23.19H221.72V181.28Z" transform="translate(-95.66 -112.64)"/><path d="M380.2,318.19a10.42,10.42,0,1,1-10.34-10.34A10.32,10.32,0,0,1,380.2,318.19Zm-10.91,3.57,1.35-.06c.77-1.17,2.28-2.45,2.11-3.46a4.48,4.48,0,0,0-3-2.87,2.51,2.51,0,0,0-3,3.07C367,319.66,368.42,320.66,369.29,321.76Z" transform="translate(-95.66 -112.64)"/><path d="M340.3,307.85A10.6,10.6,0,0,1,351,318.31a10.51,10.51,0,1,1-21,0A10.53,10.53,0,0,1,340.3,307.85Zm3.57,11.24,0-1.45c-1.11-.8-2.14-2.08-3.35-2.29-1.93-.34-3.12,1-3.12,3s1.17,3.11,3,2.8C341.63,320.93,342.71,319.81,343.86,319.09Z" transform="translate(-95.66 -112.64)"/><path class="cls-2" d="M369.29,321.76c-.87-1.1-2.27-2.1-2.47-3.31a2.51,2.51,0,0,1,3-3.07,4.48,4.48,0,0,1,3,2.87c.17,1-1.34,2.3-2.11,3.46Z" transform="translate(-95.66 -112.64)"/><path class="cls-2" d="M343.86,319.09c-1.15.72-2.23,1.85-3.47,2.06-1.8.31-3-.89-3-2.8s1.19-3.33,3.12-3c1.22.22,2.24,1.49,3.35,2.29Z" transform="translate(-95.66 -112.64)"/></svg>