<?xml version="1.0" encoding="utf-8"?>
<!-- Generator: Adobe Illustrator 21.0.0, SVG Export Plug-In . SVG Version: 6.00 Build 0)  -->
<svg version="1.1" id="Camada_1" xmlns="http://www.w3.org/2000/svg" xmlns:xlink="http://www.w3.org/1999/xlink" x="0px" y="0px"
	 viewBox="0 0 512 512" style="enable-background:new 0 0 512 512;" xml:space="preserve">
<style type="text/css">
	.st0{fill:#FFFFFF;stroke:#000000;stroke-miterlimit:10;}
	.st1{fill:#474596;}
	.st2{enable-background:new    ;}
	.st3{clip-path:url(#SVGID_2_);enable-background:new    ;}
	.st4{clip-path:url(#SVGID_4_);enable-background:new    ;}
	.st5{clip-path:url(#SVGID_6_);enable-background:new    ;}
	.st6{clip-path:url(#SVGID_8_);enable-background:new    ;}
	.st7{clip-path:url(#SVGID_10_);enable-background:new    ;}
	.st8{clip-path:url(#SVGID_12_);enable-background:new    ;}
	.st9{clip-path:url(#SVGID_14_);enable-background:new    ;}
	.st10{fill:#DCDCDC;}
	.st11{fill:#B8B8B8;}
	.st12{clip-path:url(#SVGID_16_);enable-background:new    ;}
	.st13{fill:#858585;}
	.st14{clip-path:url(#SVGID_18_);enable-background:new    ;}
	.st15{clip-path:url(#SVGID_20_);enable-background:new    ;}
	.st16{fill:#45347C;}
	.st17{clip-path:url(#SVGID_22_);enable-background:new    ;}
	.st18{clip-path:url(#SVGID_24_);enable-background:new    ;}
	.st19{fill:#DBDBDB;}
	.st20{fill:#D6D6D6;}
	.st21{fill:#D1D1D1;}
	.st22{fill:#CCCCCC;}
	.st23{fill:#C7C7C7;}
	.st24{clip-path:url(#SVGID_26_);enable-background:new    ;}
	.st25{clip-path:url(#SVGID_28_);enable-background:new    ;}
	.st26{clip-path:url(#SVGID_30_);enable-background:new    ;}
	.st27{clip-path:url(#SVGID_32_);enable-background:new    ;}
	.st28{fill:#403174;}
	.st29{clip-path:url(#SVGID_34_);enable-background:new    ;}
	.st30{fill:#34255C;}
	.st31{clip-path:url(#SVGID_36_);enable-background:new    ;}
	.st32{clip-path:url(#SVGID_38_);enable-background:new    ;}
	.st33{fill:#515051;}
	.st34{fill:#FFFFFF;}
</style>
<circle class="st0" cx="265.2" cy="258.7" r="204.6"/>
<circle class="st1" cx="265.2" cy="258.7" r="200.6"/>
<g>
	<g>
		<g class="st2">
			<g class="st2">
				<defs>
					<path id="SVGID_1_" class="st2" d="M237.6,146.3l8.2,4.9c-1.3,3.3-2.7,6.7-4,10c-1.3,3.7-2.7,7.3-4,11l-8.2-4.9
						c1.3-3.7,2.6-7.3,4-11C234.8,153,236.2,149.6,237.6,146.3z"/>
				</defs>
				<clipPath id="SVGID_2_">
					<use xlink:href="#SVGID_1_"  style="overflow:visible;"/>
				</clipPath>
				<g class="st3">
					<path d="M237.6,146.3l8.2,4.9c-1.3,3.3-2.7,6.7-4,10c-1.3,3.7-2.7,7.3-4,11l-8.2-4.9c1.3-3.7,2.6-7.3,4-11
						C234.8,153,236.2,149.6,237.6,146.3"/>
				</g>
			</g>
			<g>
				<polygon points="233.5,161.7 241.7,166.6 241.5,166.6 233.3,161.7 				"/>
			</g>
			<g class="st2">
				<defs>
					<path id="SVGID_3_" class="st2" d="M229.6,167.3l8.2,4.9c-2,5.9-4.1,11.7-6.1,17.6l-8.2-4.9C225.6,179,227.6,173.2,229.6,167.3
						z"/>
				</defs>
				<clipPath id="SVGID_4_">
					<use xlink:href="#SVGID_3_"  style="overflow:visible;"/>
				</clipPath>
				<g class="st4">
					<path d="M229.6,167.3l8.2,4.9c-2,5.9-4.1,11.7-6.1,17.6l-8.2-4.9C225.6,179,227.6,173.2,229.6,167.3"/>
				</g>
			</g>
			<g>
				<path d="M223.3,184.8c2.1-5.8,4.2-11.7,6.3-17.5c-2,5.9-4.1,11.7-6.1,17.6C223.5,184.9,223.4,184.8,223.3,184.8z"/>
			</g>
			<g class="st2">
				<defs>
					<path id="SVGID_5_" class="st2" d="M233.3,161.7l8.2,4.9c-3.9,10.7-7.7,21.4-11.6,32.1l-8.2-4.9
						C225.6,183.1,229.5,172.4,233.3,161.7z"/>
				</defs>
				<clipPath id="SVGID_6_">
					<use xlink:href="#SVGID_5_"  style="overflow:visible;"/>
				</clipPath>
				<g class="st5">
					<path d="M233.3,161.7l8.2,4.9c-3.9,10.7-7.7,21.4-11.6,32.1l-8.2-4.9C225.6,183.1,229.5,172.4,233.3,161.7"/>
				</g>
			</g>
			<g>
				<polygon points="281.5,104.8 289.7,109.7 289.7,109.9 281.5,105 				"/>
			</g>
			<g class="st2">
				<defs>
					<path id="SVGID_7_" class="st2" d="M299.1,108.7l8.2,4.9c-5.8-1.3-11.7-2.6-17.5-3.9l-8.2-4.9
						C287.4,106.1,293.2,107.4,299.1,108.7z"/>
				</defs>
				<clipPath id="SVGID_8_">
					<use xlink:href="#SVGID_7_"  style="overflow:visible;"/>
				</clipPath>
				<g class="st6">
					<path d="M299.1,108.7l8.2,4.9c-5.8-1.3-11.7-2.6-17.5-3.9l-8.2-4.9C287.4,106.1,293.2,107.4,299.1,108.7"/>
				</g>
			</g>
			<g class="st2">
				<defs>
					<path id="SVGID_9_" class="st2" d="M255,109.3l8.2,4.9c-2.9,3.2-4.3,6.4-5.5,9.6c-17,47.1-33.9,94.1-50.9,141.2
						c-12.2,34-24.5,67.9-36.6,101.9c-1.2,3.5-1.8,7.1-2.7,10.6l-8.2-4.9c0.9-3.5,1.5-7.2,2.7-10.6c12.1-34,24.4-67.9,36.6-101.9
						c17-47.1,33.9-94.1,50.9-141.2C250.8,115.7,252.1,112.5,255,109.3z"/>
				</defs>
				<clipPath id="SVGID_10_">
					<use xlink:href="#SVGID_9_"  style="overflow:visible;"/>
				</clipPath>
				<g class="st7">
					<path d="M255,109.3l8.2,4.9c0,0-0.1,0.1-0.1,0.1l-8.2-4.9C255,109.4,255,109.3,255,109.3"/>
					<path d="M254.9,109.4l8.2,4.9c-0.2,0.3-0.5,0.5-0.7,0.8l-8.2-4.9C254.5,110,254.7,109.7,254.9,109.4"/>
					<path d="M254.2,110.2l8.2,4.9c-0.2,0.3-0.4,0.5-0.6,0.8l-8.2-4.9C253.8,110.8,254,110.5,254.2,110.2"/>
					<path d="M253.6,111l8.2,4.9c-0.2,0.3-0.4,0.5-0.6,0.8l-8.2-4.9C253.2,111.6,253.4,111.3,253.6,111"/>
					<path d="M253,111.8l8.2,4.9c-0.2,0.3-0.4,0.6-0.6,0.9l-8.2-4.9C252.6,112.4,252.8,112.1,253,111.8"/>
					<path d="M252.5,112.7l8.2,4.9c-0.2,0.3-0.4,0.6-0.6,0.9l-8.2-4.9C252.1,113.3,252.3,113,252.5,112.7"/>
					<path d="M251.9,113.6l8.2,4.9c-0.2,0.4-0.4,0.7-0.6,1.1l-8.2-4.9C251.5,114.4,251.7,114,251.9,113.6"/>
					<path d="M251.3,114.8l8.2,4.9c-0.2,0.5-0.5,1-0.7,1.5l-8.2-4.9C250.8,115.7,251.1,115.2,251.3,114.8"/>
					<path d="M250.6,116.2l8.2,4.9c-0.4,0.9-0.7,1.8-1.1,2.7c-17,47.1-33.9,94.1-50.9,141.2c-10.4,28.9-20.8,57.8-31.2,86.7
						l-8.2-4.9c10.4-28.9,20.8-57.8,31.2-86.7c17-47.1,33.9-94.1,50.9-141.2C249.9,118,250.2,117.1,250.6,116.2"/>
					<path d="M167.5,346.8l8.2,4.9c-1.8,5.1-3.6,10.2-5.5,15.2c-0.3,0.9-0.6,1.8-0.8,2.7l-8.2-4.9c0.2-0.9,0.5-1.8,0.8-2.7
						C163.9,357,165.7,351.9,167.5,346.8"/>
					<path d="M161.2,364.7l8.2,4.9c-0.7,2.6-1.2,5.3-1.9,7.9l-8.2-4.9C160,370,160.5,367.4,161.2,364.7"/>
				</g>
			</g>
			<g class="st2">
				<defs>
					<path id="SVGID_11_" class="st2" d="M249.5,126.8l8.2,4.9c-27.4,76.2-54.8,152.2-82.2,228.2l-8.2-4.9
						C194.8,278.9,222.1,202.9,249.5,126.8z"/>
				</defs>
				<clipPath id="SVGID_12_">
					<use xlink:href="#SVGID_11_"  style="overflow:visible;"/>
				</clipPath>
				<g class="st8">
					<path d="M249.5,126.8l8.2,4.9c-27.4,76.2-54.8,152.2-82.2,228.2l-8.2-4.9C194.8,278.9,222.1,202.9,249.5,126.8"/>
				</g>
			</g>
			<g>
				<polygon points="327.4,115.1 335.6,120 335.6,120.2 327.4,115.2 				"/>
			</g>
			<g class="st2">
				<defs>
					<path id="SVGID_13_" class="st2" d="M346.5,119.3l8.2,4.9c-6.4-1.4-12.7-2.9-19.1-4.3l-8.2-4.9
						C333.8,116.5,340.2,117.9,346.5,119.3z"/>
				</defs>
				<clipPath id="SVGID_14_">
					<use xlink:href="#SVGID_13_"  style="overflow:visible;"/>
				</clipPath>
				<g class="st9">
					<path d="M346.5,119.3l8.2,4.9c-6.4-1.4-12.7-2.9-19.1-4.3l-8.2-4.9C333.8,116.5,340.2,117.9,346.5,119.3"/>
				</g>
			</g>
			<g>
				<polygon class="st10" points="346.5,119.3 354.7,124.2 354.7,124.4 346.5,119.5 				"/>
			</g>
			<g>
				<path class="st11" d="M346.5,119.3l-0.1,0.2c-6.4-1.4-12.7-2.9-19.1-4.3l0.1-0.2C333.8,116.5,340.2,117.9,346.5,119.3z"/>
			</g>
			<g class="st2">
				<defs>
					<path id="SVGID_15_" class="st2" d="M346.5,119.5l8.2,4.9c-6.4-1.4-12.7-2.9-19.1-4.3l-8.2-4.9
						C333.7,116.7,340.1,118.1,346.5,119.5z"/>
				</defs>
				<clipPath id="SVGID_16_">
					<use xlink:href="#SVGID_15_"  style="overflow:visible;"/>
				</clipPath>
				<g class="st12">
					<path class="st13" d="M346.5,119.5l8.2,4.9c-6.4-1.4-12.7-2.9-19.1-4.3l-8.2-4.9C333.7,116.7,340.1,118.1,346.5,119.5"/>
				</g>
			</g>
			<g>
				<polygon points="202.9,392.5 211.1,397.4 211.1,397.6 202.9,392.7 				"/>
			</g>
			<g class="st2">
				<defs>
					<path id="SVGID_17_" class="st2" d="M355.5,150.5l8.2,4.9c-35.4-7.9-70.7-15.8-105.9-23.7l-8.2-4.9
						C284.8,134.7,320,142.6,355.5,150.5z"/>
				</defs>
				<clipPath id="SVGID_18_">
					<use xlink:href="#SVGID_17_"  style="overflow:visible;"/>
				</clipPath>
				<g class="st14">
					<path d="M355.5,150.5l8.2,4.9c-35.4-7.9-70.7-15.8-105.9-23.7l-8.2-4.9C284.8,134.7,320,142.6,355.5,150.5"/>
				</g>
			</g>
			<g class="st2">
				<defs>
					<path id="SVGID_19_" class="st2" d="M355.5,150.5l8.2,4.9c-27.4,76-54.7,152-82.2,228.2l-8.2-4.9
						C300.8,302.5,328.1,226.5,355.5,150.5z"/>
				</defs>
				<clipPath id="SVGID_20_">
					<use xlink:href="#SVGID_19_"  style="overflow:visible;"/>
				</clipPath>
				<g class="st15">
					<path class="st16" d="M355.5,150.5l8.2,4.9c-27.4,76-54.7,152-82.2,228.2l-8.2-4.9C300.8,302.5,328.1,226.5,355.5,150.5"/>
				</g>
			</g>
			<g class="st2">
				<defs>
					<path id="SVGID_21_" class="st2" d="M364,133.6l8.2,4.9c-31.8,88.3-63.3,175.9-94.8,263.5l-8.2-4.9
						C300.6,309.5,332.2,221.9,364,133.6z"/>
				</defs>
				<clipPath id="SVGID_22_">
					<use xlink:href="#SVGID_21_"  style="overflow:visible;"/>
				</clipPath>
				<g class="st17">
					<path d="M364,133.6l8.2,4.9c-31.8,88.3-63.3,175.9-94.8,263.5l-8.2-4.9C300.6,309.5,332.2,221.9,364,133.6"/>
				</g>
			</g>
			<g class="st2">
				<defs>
					<path id="SVGID_23_" class="st2" d="M364,133.6l8.2,4.9c0.3,4.5-0.9,8.3-2.3,12.1c-1.6,4.3-3.1,8.7-4.7,13
						c-4.7,13-9.4,26.1-14.1,39.1c-22.7,62.9-45.3,125.9-68,188.8c-1.3,3.6-3.3,7.1-4.9,10.7l-8.2-4.9c1.6-3.6,3.6-7.1,4.9-10.7
						c22.7-62.9,45.4-125.9,68-188.8c4.7-13,9.4-26.1,14.1-39.1c1.6-4.3,3.1-8.7,4.7-13C363,141.9,364.3,138.1,364,133.6z"/>
				</defs>
				<clipPath id="SVGID_24_">
					<use xlink:href="#SVGID_23_"  style="overflow:visible;"/>
				</clipPath>
				<g class="st18">
					<path class="st19" d="M364,133.6l8.2,4.9c0.1,1.6,0,3.2-0.2,4.6l-8.2-4.9C364,136.8,364.1,135.2,364,133.6"/>
					<path class="st20" d="M363.8,138.2l8.2,4.9c-0.2,1.1-0.4,2.1-0.7,3.2l-8.2-4.9C363.4,140.4,363.6,139.3,363.8,138.2"/>
					<path class="st21" d="M363.1,141.4l8.2,4.9c-0.4,1.4-0.9,2.8-1.4,4.2l-8.2-4.9C362.2,144.2,362.7,142.8,363.1,141.4"/>
					<path class="st22" d="M361.7,145.6l8.2,4.9c0,0.1,0,0.1-0.1,0.2c-1.6,4.3-3.1,8.7-4.7,13c-4.7,13-9.4,26.1-14.1,39.1
						c-22.7,62.9-45.3,125.9-68,188.8c-0.3,0.8-0.6,1.6-0.9,2.3L274,389c0.3-0.8,0.6-1.5,0.9-2.3c22.7-62.9,45.4-125.9,68-188.8
						c4.7-13,9.4-26.1,14.1-39.1c1.6-4.3,3.1-8.7,4.7-13C361.7,145.7,361.7,145.6,361.7,145.6"/>
					<path class="st23" d="M274,389l8.2,4.9c-1.2,2.8-2.7,5.6-4,8.4l-8.2-4.9C271.3,394.6,272.7,391.8,274,389"/>
				</g>
			</g>
			<g class="st2">
				<defs>
					<path id="SVGID_25_" class="st2" d="M360.5,121.8l8.2,4.9c1.2,0.7,2.3,1.5,3.4,2.4c4,3.4,4.6,9,2.4,15.4l-8.2-4.9
						c2.3-6.4,1.6-11.9-2.4-15.4C362.8,123.4,361.7,122.6,360.5,121.8z"/>
				</defs>
				<clipPath id="SVGID_26_">
					<use xlink:href="#SVGID_25_"  style="overflow:visible;"/>
				</clipPath>
				<g class="st24">
					<path d="M360.5,121.8l8.2,4.9c0,0,0.1,0,0.1,0.1l-8.2-4.9C360.5,121.9,360.5,121.9,360.5,121.8"/>
					<path d="M360.6,121.9l8.2,4.9c0.5,0.3,1.1,0.7,1.6,1l-8.2-4.9C361.6,122.6,361.1,122.2,360.6,121.9"/>
					<path d="M362.1,122.9l8.2,4.9c0.5,0.4,1,0.7,1.4,1.1l-8.2-4.9C363.1,123.7,362.6,123.3,362.1,122.9"/>
					<path d="M363.6,124l8.2,4.9c0.1,0.1,0.2,0.1,0.3,0.2c0.2,0.1,0.3,0.3,0.5,0.4l-8.2-4.9c-0.2-0.1-0.3-0.3-0.5-0.4
						C363.7,124.2,363.6,124.1,363.6,124"/>
					<path d="M364.3,124.7l8.2,4.9c0.2,0.2,0.4,0.4,0.5,0.6l-8.2-4.9C364.7,125.1,364.5,124.9,364.3,124.7"/>
					<path d="M364.8,125.2l8.2,4.9c0.2,0.2,0.3,0.4,0.5,0.6l-8.2-4.9C365.1,125.6,365,125.4,364.8,125.2"/>
					<path d="M365.3,125.8l8.2,4.9c0.2,0.2,0.3,0.4,0.4,0.6l-8.2-4.9C365.6,126.2,365.4,126,365.3,125.8"/>
					<path d="M365.7,126.4l8.2,4.9c0.1,0.2,0.3,0.4,0.4,0.7l-8.2-4.9C366,126.9,365.9,126.6,365.7,126.4"/>
					<path d="M366.1,127.1l8.2,4.9c0.1,0.2,0.3,0.5,0.4,0.7l-8.2-4.9C366.4,127.6,366.3,127.3,366.1,127.1"/>
					<path d="M366.5,127.8l8.2,4.9c0.1,0.3,0.2,0.6,0.3,0.8l-8.2-4.9C366.7,128.4,366.6,128.1,366.5,127.8"/>
					<path d="M366.8,128.7l8.2,4.9c0.1,0.4,0.2,0.7,0.3,1.1l-8.2-4.9C367.1,129.4,366.9,129,366.8,128.7"/>
					<path d="M367.1,129.7l8.2,4.9c0.1,0.6,0.2,1.1,0.3,1.7l-8.2-4.9C367.4,130.9,367.3,130.3,367.1,129.7"/>
					<path d="M367.4,131.5l8.2,4.9c0.1,1.2,0.1,2.5-0.1,3.8l-8.2-4.9C367.5,134,367.5,132.7,367.4,131.5"/>
					<path d="M367.3,135.3l8.2,4.9c-0.1,0.8-0.3,1.6-0.5,2.5l-8.2-4.9C367,136.9,367.2,136.1,367.3,135.3"/>
					<path d="M366.8,137.8l8.2,4.9c-0.2,0.6-0.4,1.2-0.6,1.8l-8.2-4.9C366.4,139,366.6,138.4,366.8,137.8"/>
				</g>
			</g>
			<g class="st2">
				<defs>
					<path id="SVGID_27_" class="st2" d="M221.7,396.7l8.2,4.9c-6.2-1.4-12.5-2.8-18.7-4.2l-8.2-4.9
						C209.2,393.9,215.4,395.3,221.7,396.7z"/>
				</defs>
				<clipPath id="SVGID_28_">
					<use xlink:href="#SVGID_27_"  style="overflow:visible;"/>
				</clipPath>
				<g class="st25">
					<path d="M221.7,396.7l8.2,4.9c-6.2-1.4-12.5-2.8-18.7-4.2l-8.2-4.9C209.2,393.9,215.4,395.3,221.7,396.7"/>
				</g>
			</g>
			<g class="st2">
				<defs>
					<path id="SVGID_29_" class="st2" d="M347.3,187.3l8.2,4.9c-3.7,10.3-7.4,20.7-11.2,31l-8.2-4.9
						C339.9,208,343.6,197.6,347.3,187.3z"/>
				</defs>
				<clipPath id="SVGID_30_">
					<use xlink:href="#SVGID_29_"  style="overflow:visible;"/>
				</clipPath>
				<g class="st26">
					<path d="M347.3,187.3l8.2,4.9c-3.7,10.3-7.4,20.7-11.2,31l-8.2-4.9C339.9,208,343.6,197.6,347.3,187.3"/>
				</g>
			</g>
			<g>
				<polygon points="301.4,315.3 309.6,320.2 309.5,320.1 301.3,315.2 				"/>
			</g>
			<g class="st2">
				<defs>
					<path id="SVGID_31_" class="st2" d="M301.3,315.2l8.2,4.9c-3.3,9.1-6.5,18.1-9.8,27.2l-8.2-4.9
						C294.7,333.3,298,324.3,301.3,315.2z"/>
				</defs>
				<clipPath id="SVGID_32_">
					<use xlink:href="#SVGID_31_"  style="overflow:visible;"/>
				</clipPath>
				<g class="st27">
					<path d="M301.3,315.2l8.2,4.9c-3.3,9.1-6.5,18.1-9.8,27.2l-8.2-4.9C294.7,333.3,298,324.3,301.3,315.2"/>
				</g>
			</g>
			<g>
				<path class="st28" d="M355.5,150.5c-27.4,76-54.7,152-82.2,228.2c-35.4-7.9-70.6-15.8-105.9-23.7
					c27.4-76.1,54.7-152.1,82.2-228.2C284.8,134.7,320,142.6,355.5,150.5z"/>
			</g>
			<g class="st2">
				<defs>
					<path id="SVGID_33_" class="st2" d="M273.3,378.8l8.2,4.9c-35.4-7.9-70.6-15.8-105.9-23.7l-8.2-4.9
						C202.8,362.9,237.9,370.8,273.3,378.8z"/>
				</defs>
				<clipPath id="SVGID_34_">
					<use xlink:href="#SVGID_33_"  style="overflow:visible;"/>
				</clipPath>
				<g class="st29">
					<path class="st30" d="M273.3,378.8l8.2,4.9c-35.4-7.9-70.6-15.8-105.9-23.7l-8.2-4.9C202.8,362.9,237.9,370.8,273.3,378.8"/>
				</g>
			</g>
			<g class="st2">
				<defs>
					<path id="SVGID_35_" class="st2" d="M270,397.4l8.2,4.9c-0.3-0.1-0.6-0.2-0.8-0.4l-8.2-4.9C269.4,397.2,269.7,397.3,270,397.4z
						"/>
				</defs>
				<clipPath id="SVGID_36_">
					<use xlink:href="#SVGID_35_"  style="overflow:visible;"/>
				</clipPath>
				<g class="st31">
					<path class="st13" d="M270,397.4l8.2,4.9c-0.3-0.1-0.6-0.2-0.8-0.4l-8.2-4.9C269.4,397.2,269.7,397.3,270,397.4"/>
				</g>
			</g>
			<g>
				<path class="st11" d="M364,133.6c0.3,4.5-0.9,8.3-2.3,12.1c-1.6,4.3-3.1,8.7-4.7,13c-4.7,13-9.4,26.1-14.1,39.1
					c-22.7,62.9-45.3,125.9-68,188.8c-1.3,3.6-3.3,7.1-4.9,10.7c-0.3-0.1-0.6-0.2-0.8-0.4C300.6,309.5,332.2,221.9,364,133.6z"/>
			</g>
			<g>
				<path d="M366.2,139.6c-8.7,24.4-17.5,48.9-26.4,73.3c-1.9,5.1-4,10.2-5.9,15.3c-19.4,54.1-38.7,108.1-58,162.2
					c-4.2,11.7-11.4,17.1-21.5,15.7c-2.6-0.4-5.2-0.9-7.7-1.5c-1.1-0.3-2.3-0.5-3.4-0.8c-11.2-2.5-22.3-5-33.5-7.5
					c-13-2.9-25.9-5.8-38.9-8.8c-2.9-0.7-5.8-1.7-8.3-3.2c-6.1-3.8-7.4-10.1-4.3-18.8c16.8-46.6,33.6-93.3,50.4-139.9
					c2.4-6.8,5.2-13.5,7.6-20.3c2.4-6.9,4.8-13.8,7.2-20.7c4.8-12.8,9.4-25.7,14-38.6c-1.3,3.3-2.7,6.7-4,10c-1.3,3.7-2.7,7.3-4,11
					c2.1-6,4.1-11.9,6.2-17.9c0.4-1.1,1.1-2.1,1.7-3.1c0.2-0.9,0.4-1.8,0.7-2.7c3.4-9.5,6.8-19.1,10.3-28.6
					c3.5-9.7,10.1-14.9,18.6-14.7c2,0.1,4,0.3,5.9,0.7c13.3,3,26.6,5.9,39.9,8.9c13.8,3.1,27.6,6.2,41.3,9.4
					c3.5,0.8,6.8,2.6,9.5,4.9C367.8,127.7,368.5,133.3,366.2,139.6z M273.3,378.8c27.4-76.2,54.8-152.2,82.2-228.2
					c-35.4-7.9-70.7-15.8-105.9-23.7c-27.4,76.2-54.8,152.2-82.2,228.2C202.8,362.9,237.9,370.8,273.3,378.8 M160.2,372.7
					c31.5-87.6,63-175.1,94.8-263.4c-2.9,3.2-4.3,6.4-5.5,9.6c-17,47.1-33.9,94.1-50.9,141.2c-12.2,34-24.5,67.9-36.6,101.9
					c-1.2,3.5-1.8,7.1-2.7,10.6C159.6,372.7,159.9,372.7,160.2,372.7 M342.9,197.9c4.7-13,9.4-26.1,14.1-39.1
					c1.6-4.3,3.1-8.7,4.7-13c1.4-3.8,2.6-7.6,2.3-12.1c-31.8,88.3-63.3,175.9-94.8,263.5c0.3,0.1,0.6,0.2,0.8,0.4
					c1.6-3.6,3.6-7.1,4.9-10.7C297.6,323.8,320.2,260.8,342.9,197.9 M336.3,218.3c3.7-10.3,7.4-20.6,11.1-30.9l-0.1-0.2
					c-3.7,10.3-7.4,20.7-11.2,31L336.3,218.3 M221.9,193.8c3.9-10.7,7.7-21.4,11.6-32.1l-0.1,0c-3.9,10.7-7.7,21.4-11.6,32.1
					L221.9,193.8 M291.6,342.4c3.3-9.1,6.5-18.1,9.8-27.2l-0.2,0c-3.3,9.1-6.5,18.1-9.8,27.2L291.6,342.4 M177,318.5
					c3.4-9.4,6.8-18.9,10.2-28.3l-0.1,0c-3.4,9.4-6.8,18.8-10.2,28.3L177,318.5 M327.4,115.1l-0.1,0.2c6.4,1.4,12.7,2.9,19.1,4.3
					l0.1-0.2C340.2,117.9,333.8,116.5,327.4,115.1 M281.5,104.8l-0.1,0.2c5.8,1.3,11.7,2.6,17.5,3.9l0.1-0.2
					C293.2,107.4,287.4,106.1,281.5,104.8 M221.6,396.9l0-0.1c-6.2-1.4-12.5-2.8-18.7-4.2l0,0.1
					C209.1,394.1,215.4,395.5,221.6,396.9"/>
			</g>
			<g class="st2">
				<defs>
					<path id="SVGID_37_" class="st2" d="M171.1,389.5l-8.2-4.9c2.4,1.4,5.2,2.4,8,3c13,3,25.9,5.9,38.9,8.8
						c11.2,2.5,22.3,5,33.5,7.5c1.1,0.3,2.3,0.5,3.4,0.8c2.6,0.6,5.1,1.1,7.7,1.5c10,1.4,17.3-4,21.5-15.7
						c19.4-54.1,38.7-108.1,58-162.2c1.8-5.1,4-10.2,5.9-15.3c8.8-24.4,17.6-48.9,26.4-73.3l8.2,4.9c-8.7,24.4-17.5,48.9-26.4,73.3
						c-1.9,5.1-4,10.2-5.9,15.3c-19.4,54.1-38.7,108.1-58,162.2c-4.2,11.7-11.4,17.1-21.5,15.7c-2.6-0.4-5.2-0.9-7.7-1.5
						c-1.1-0.3-2.3-0.5-3.4-0.8c-11.2-2.5-22.3-5-33.5-7.5c-13-2.9-25.9-5.8-38.9-8.8C176.3,391.9,173.5,390.9,171.1,389.5z"/>
				</defs>
				<clipPath id="SVGID_38_">
					<use xlink:href="#SVGID_37_"  style="overflow:visible;"/>
				</clipPath>
				<g class="st32">
					<path d="M366.2,139.6l8.2,4.9c-1.9,5.2-3.7,10.4-5.6,15.6l-8.2-4.9C362.5,150,364.3,144.8,366.2,139.6"/>
					<path d="M360.6,155.2l8.2,4.9c-6.9,19.2-13.8,38.5-20.8,57.7c-1.9,5.1-4,10.2-5.9,15.3l-8.2-4.9c1.8-5.1,4-10.2,5.9-15.3
						C346.8,193.7,353.7,174.5,360.6,155.2"/>
					<path d="M334,228.2l8.2,4.9c0,0,0,0,0,0c-19.4,54.1-38.7,108.1-58,162.2c0,0,0,0,0,0l-8.2-4.9c0,0,0,0,0,0
						C295.3,336.4,314.6,282.3,334,228.2C334,228.3,334,228.2,334,228.2"/>
					<path d="M275.9,390.5l8.2,4.9c-0.3,0.8-0.6,1.6-0.9,2.4l-8.2-4.9C275.3,392.1,275.6,391.3,275.9,390.5"/>
					<path d="M275,392.9l8.2,4.9c-0.3,0.6-0.5,1.2-0.8,1.8l-8.2-4.9C274.4,394.1,274.7,393.5,275,392.9"/>
					<path d="M274.1,394.7l8.2,4.9c-0.2,0.5-0.5,1-0.7,1.4l-8.2-4.9C273.7,395.6,273.9,395.2,274.1,394.7"/>
					<path d="M273.4,396.1l8.2,4.9c-0.2,0.4-0.5,0.8-0.7,1.2l-8.2-4.9C272.9,396.9,273.2,396.5,273.4,396.1"/>
					<path d="M272.7,397.3l8.2,4.9c-0.2,0.3-0.4,0.7-0.7,1l-8.2-4.9C272.3,398,272.5,397.6,272.7,397.3"/>
					<path d="M272,398.3l8.2,4.9c-0.2,0.3-0.4,0.6-0.6,0.9l-8.2-4.9C271.6,398.9,271.8,398.6,272,398.3"/>
					<path d="M271.4,399.2l8.2,4.9c-0.2,0.3-0.4,0.5-0.6,0.8l-8.2-4.9C271,399.7,271.2,399.5,271.4,399.2"/>
					<path d="M270.8,400l8.2,4.9c-0.2,0.3-0.4,0.5-0.6,0.7l-8.2-4.9C270.3,400.5,270.6,400.2,270.8,400"/>
					<path d="M270.1,400.7l8.2,4.9c-0.2,0.2-0.4,0.5-0.7,0.7l-8.2-4.9C269.7,401.2,269.9,401,270.1,400.7"/>
					<path d="M269.5,401.4l8.2,4.9c-0.2,0.2-0.5,0.4-0.7,0.7l-8.2-4.9C269,401.9,269.2,401.6,269.5,401.4"/>
					<path d="M268.8,402.1l8.2,4.9c-0.2,0.2-0.5,0.4-0.7,0.6l-8.2-4.9C268.3,402.5,268.5,402.3,268.8,402.1"/>
					<path d="M268,402.7l8.2,4.9c-0.3,0.2-0.5,0.4-0.8,0.6l-8.2-4.9C267.5,403.1,267.7,402.9,268,402.7"/>
					<path d="M267.2,403.3l8.2,4.9c-0.3,0.2-0.6,0.4-1,0.6l-8.2-4.9C266.5,403.8,266.9,403.6,267.2,403.3"/>
					<path d="M266.2,404l8.2,4.9c-0.4,0.3-0.9,0.5-1.4,0.7l-8.2-4.9C265.3,404.5,265.8,404.3,266.2,404"/>
					<path d="M264.9,404.7l8.2,4.9c-3,1.5-6.5,2-10.4,1.4c-2.6-0.4-5.2-0.9-7.7-1.5c-1.1-0.3-2.3-0.5-3.4-0.8
						c-11.2-2.5-22.3-5-33.5-7.5c-13-2.9-25.9-5.8-38.9-8.8c-2.8-0.6-5.6-1.6-8-3l-8.2-4.9c2.4,1.4,5.2,2.4,8,3
						c13,3,25.9,5.9,38.9,8.8c11.2,2.5,22.3,5,33.5,7.5c1.1,0.3,2.3,0.5,3.4,0.8c2.6,0.6,5.1,1.1,7.7,1.5
						C258.3,406.7,261.8,406.2,264.9,404.7"/>
				</g>
			</g>
		</g>
	</g>
</g>
<g>
	<path class="st33" d="M230.6,207.2c8.2-2.7,16.2-5.2,24.6-7.9c12,37.4,24.6,74.5,33.7,112.9c-0.8,0.4-1.4,0.7-2.1,1
		c-4.9,1.6-9.9,3.1-14.9,4.8c-1.8,0.6-2.8,0.3-3.5-1.6c-7-19.2-14.3-38.3-21-57.6c-5.6-16.1-10.6-32.4-15.9-48.7
		C231.2,209.2,231,208.3,230.6,207.2z M271.9,313.5c0.9-2.5-30.3-100.5-33-105.6c-0.8,0.3-1.7,0.6-2.8,0.9
		C247.4,243.8,258.2,278.8,271.9,313.5z"/>
	<path class="st33" d="M254.2,196.8c-8.3,2.7-16.2,5.2-24.4,7.9c-1.8-5.7-3.6-11.2-5.4-16.7c-7.7-23.9-15.5-47.9-23.2-71.8
		c-1.4-4.5-0.9-5.6,3.5-7c5-1.6,9.9-3.2,14.9-4.8c3.2-1,4.8-0.3,5.8,2.8c9.5,29.3,18.9,58.5,28.4,87.8
		C254,195.5,254,196.1,254.2,196.8z M236.3,199.5c-9.4-29-18.6-57.5-27.9-86.3c-2.7,1.3-2.2,3.2-1.6,5.2
		c8.6,26.6,17.2,53.2,25.8,79.8c0.2,0.7,0.5,1.4,0.9,2.2C234.5,200.1,235.4,199.8,236.3,199.5z"/>
	<path class="st33" d="M220.6,185.6c0.3,1,0.9,2.1,1,3.1c0,2.1-0.1,4.6-2.6,5.3c-2.5,0.7-3.7-1.3-4.5-3.2
		c-4.3-9.3-8.4-18.6-12.6-27.9c-3.5-8-7-16.1-10.5-24.1c-4-9-1.5-17.2,7.2-22.6c1.6,4.9,3.2,9.8,4.7,14.6c-0.2,0.1-0.2,0.2-0.3,0.3
		c-6.4,1-6.7,1.4-4.5,7.8c5.1,15,10.4,30,15.7,45C215.2,187,215.9,187.1,220.6,185.6z"/>
	<path class="st33" d="M270,320.9c6.1-2,11.6-3.8,17.1-5.5c0.7-0.2,1.5-0.4,2.6-0.7c1.1,5.1,2.4,10,3.1,15c1,7.5,1.7,15.1,2.4,22.6
		c0.2,2.2-0.8,3.5-3.1,4.1c-1.8,0.5-3,0.2-3.9-1.3c-3.1-5.1-6.5-10-9.2-15.3C275.8,333.8,273.1,327.5,270,320.9z M281,318.9
		c3.9,12,7.7,23.8,11.5,35.6c0.3-0.1,0.6-0.1,0.9-0.2c1-12.9-2.6-25.1-5.5-37.7C285.4,317.5,283.3,318.1,281,318.9z"/>
	<path class="st33" d="M218.8,102.1c-5.3,1.7-10.2,3.3-15.5,5c-1.2-3.6-2.6-7.1-3.3-10.7c-0.2-1.1,1.2-3.1,2.4-3.7
		c2.7-1.3,5.6-2.1,8.5-2.9c2.1-0.6,3.9,0.2,4.7,2.3C216.7,95.3,217.6,98.6,218.8,102.1z M217.2,101.5c-0.8-2.3-1.4-4.4-2.1-6.5
		c-1.3-4-2.9-4.6-6.6-2.5c1.1,3.5,2.3,7,3.4,10.7C213.6,102.6,215.2,102.1,217.2,101.5z"/>
	<path class="st33" d="M295.9,357.2c-0.8,2-1.3,3.3-1.8,4.6c-1.2-0.8-2.3-1.5-4.1-2.7C292.3,358.3,293.6,357.9,295.9,357.2z"/>
	<path class="st34" d="M271.9,313.5c-13.7-34.7-24.5-69.7-35.8-104.7c1.1-0.4,1.9-0.6,2.8-0.9C241.6,213,272.8,311,271.9,313.5z"/>
	<path class="st34" d="M236.3,199.5c-0.9,0.3-1.8,0.6-2.8,0.9c-0.3-0.8-0.6-1.5-0.9-2.2c-8.6-26.6-17.2-53.2-25.8-79.8
		c-0.6-2-1.2-3.9,1.6-5.2C217.7,142,226.9,170.6,236.3,199.5z"/>
	<path class="st34" d="M281,318.9c2.3-0.7,4.4-1.4,6.9-2.2c3,12.5,6.6,24.8,5.5,37.7c-0.3,0.1-0.6,0.1-0.9,0.2
		C288.7,342.7,284.9,330.9,281,318.9z"/>
	<path class="st34" d="M217.2,101.5c-2,0.6-3.5,1.1-5.3,1.7c-1.2-3.6-2.3-7.2-3.4-10.7c3.8-2.1,5.3-1.6,6.6,2.5
		C215.8,97,216.4,99.1,217.2,101.5z"/>
</g>
</svg>
