<svg id="Camada_1" data-name="Camada 1" xmlns="http://www.w3.org/2000/svg" xmlns:xlink="http://www.w3.org/1999/xlink" viewBox="0 0 510.72 510.72"><defs><style>.cls-1{fill:none;}.cls-2{fill:#502bd4;}.cls-3,.cls-37,.cls-38{fill:#fff;}.cls-3{stroke:#000;stroke-miterlimit:10;}.cls-4{fill:#474596;}.cls-5{isolation:isolate;}.cls-6{clip-path:url(#clip-path);}.cls-7{clip-path:url(#clip-path-2);}.cls-8{clip-path:url(#clip-path-3);}.cls-9{clip-path:url(#clip-path-4);}.cls-10{clip-path:url(#clip-path-5);}.cls-11{clip-path:url(#clip-path-6);}.cls-12{clip-path:url(#clip-path-7);}.cls-13{fill:#dcdcdc;}.cls-14{fill:#b8b8b8;}.cls-15{clip-path:url(#clip-path-8);}.cls-16{fill:#858585;}.cls-17{clip-path:url(#clip-path-9);}.cls-18{clip-path:url(#clip-path-10);}.cls-19{fill:#45347c;}.cls-20{clip-path:url(#clip-path-11);}.cls-21{clip-path:url(#clip-path-12);}.cls-22{fill:#dbdbdb;}.cls-23{fill:#d6d6d6;}.cls-24{fill:#d1d1d1;}.cls-25{fill:#ccc;}.cls-26{fill:#c7c7c7;}.cls-27{clip-path:url(#clip-path-13);}.cls-28{clip-path:url(#clip-path-14);}.cls-29{clip-path:url(#clip-path-15);}.cls-30{clip-path:url(#clip-path-16);}.cls-31{fill:#403174;}.cls-32{clip-path:url(#clip-path-17);}.cls-33{fill:#34255c;}.cls-34{clip-path:url(#clip-path-18);}.cls-35{clip-path:url(#clip-path-19);}.cls-36{fill:#515051;}.cls-38{font-size:64px;font-family:AgencyFB-Reg, Agency FB;}</style><clipPath id="clip-path" transform="translate(0 -1.28)"><path class="cls-1" d="M239.67,108.85l8.44,5c-1.34,3.4-2.78,6.9-4.12,10.3-1.34,3.81-2.78,7.52-4.12,11.33l-8.44-5c1.34-3.81,2.68-7.52,4.12-11.33C236.79,115.75,238.23,112.25,239.67,108.85Z"/></clipPath><clipPath id="clip-path-2" transform="translate(0 -1.28)"><path class="cls-1" d="M231.43,130.47l8.44,5c-2.06,6.08-4.22,12-6.28,18.12l-8.44-5C227.31,142.52,229.37,136.55,231.43,130.47Z"/></clipPath><clipPath id="clip-path-3" transform="translate(0 -1.28)"><path class="cls-1" d="M235.24,124.71l8.44,5c-4,11-7.93,22-11.95,33.06l-8.44-5C227.31,146.75,231.33,135.73,235.24,124.71Z"/></clipPath><clipPath id="clip-path-4" transform="translate(0 -1.28)"><path class="cls-1" d="M303,70.13l8.44,5-18-4-8.44-5C291,67.45,296.93,68.79,303,70.13Z"/></clipPath><clipPath id="clip-path-5" transform="translate(0 -1.28)"><path class="cls-1" d="M257.59,70.75l8.44,5a28.68,28.68,0,0,0-5.66,9.89Q234.11,158.43,208,231.09C195.39,266.1,182.72,301,170.26,336c-1.24,3.6-1.85,7.31-2.78,10.92l-8.44-5c.93-3.6,1.54-7.41,2.78-10.92,12.46-35,25.13-69.92,37.69-104.94q26.26-72.76,52.42-145.41C253.27,77.34,254.6,74,257.59,70.75Z"/></clipPath><clipPath id="clip-path-6" transform="translate(0 -1.28)"><path class="cls-1" d="M251.93,88.77l8.44,5q-42.33,117.71-84.65,235l-8.44-5Q209.76,206.22,251.93,88.77Z"/></clipPath><clipPath id="clip-path-7" transform="translate(0 -1.28)"><path class="cls-1" d="M351.82,81l8.44,5c-6.59-1.44-13.08-3-19.67-4.43l-8.44-5C338.74,78.16,345.33,79.6,351.82,81Z"/></clipPath><clipPath id="clip-path-8" transform="translate(0 -1.28)"><path class="cls-1" d="M351.82,81.25l8.44,5c-6.59-1.44-13.08-3-19.67-4.43l-8.44-5C338.64,78.37,345.23,79.81,351.82,81.25Z"/></clipPath><clipPath id="clip-path-9" transform="translate(0 -1.28)"><path class="cls-1" d="M361.09,113.17l8.44,5Q314.85,106,260.47,93.81l-8.44-5C288.28,96.9,324.53,105,361.09,113.17Z"/></clipPath><clipPath id="clip-path-10" transform="translate(0 -1.28)"><path class="cls-1" d="M361.09,113.17l8.44,5q-42.33,117.4-84.65,235l-8.44-5Q318.92,230.47,361.09,113.17Z"/></clipPath><clipPath id="clip-path-11" transform="translate(0 -1.28)"><path class="cls-1" d="M369.84,95.77l8.44,5C345.54,191.75,313.1,282,280.66,372.17l-8.44-5C304.55,276.91,337.09,186.7,369.84,95.77Z"/></clipPath><clipPath id="clip-path-12" transform="translate(0 -1.28)"><path class="cls-1" d="M369.84,95.77l8.44,5c.31,4.63-.93,8.55-2.37,12.46-1.65,4.43-3.19,9-4.84,13.39-4.84,13.39-9.68,26.88-14.52,40.27q-35.07,97.16-70,194.43c-1.34,3.71-3.4,7.31-5,11l-8.44-5c1.65-3.71,3.71-7.31,5-11q35.07-97.16,70-194.43c4.84-13.39,9.68-26.88,14.52-40.27,1.65-4.43,3.19-9,4.84-13.39C368.81,104.32,370.15,100.4,369.84,95.77Z"/></clipPath><clipPath id="clip-path-13" transform="translate(0 -1.28)"><path class="cls-1" d="M366.24,83.62l8.44,5a26.94,26.94,0,0,1,3.5,2.47c4.12,3.5,4.74,9.27,2.47,15.86l-8.44-5c2.37-6.59,1.65-12.25-2.47-15.86C368.6,85.27,367.47,84.44,366.24,83.62Z"/></clipPath><clipPath id="clip-path-14" transform="translate(0 -1.28)"><path class="cls-1" d="M223.3,366.71l8.44,5-19.26-4.33-8.44-5C210.42,363.83,216.81,365.27,223.3,366.71Z"/></clipPath><clipPath id="clip-path-15" transform="translate(0 -1.28)"><path class="cls-1" d="M352.64,151.07l8.44,5c-3.81,10.61-7.62,21.32-11.53,31.92l-8.44-5C345,172.39,348.83,161.68,352.64,151.07Z"/></clipPath><clipPath id="clip-path-16" transform="translate(0 -1.28)"><path class="cls-1" d="M305.27,282.78l8.44,5c-3.4,9.37-6.69,18.64-10.09,28l-8.44-5C298.47,301.42,301.87,292.16,305.27,282.78Z"/></clipPath><clipPath id="clip-path-17" transform="translate(0 -1.28)"><path class="cls-1" d="M276.44,348.28l8.44,5c-36.46-8.14-72.7-16.27-109.06-24.41l-8.44-5C203.83,331.91,240,340,276.44,348.28Z"/></clipPath><clipPath id="clip-path-18" transform="translate(0 -1.28)"><path class="cls-1" d="M273,367.44l8.44,5a2.07,2.07,0,0,1-.82-.41l-8.44-5A2.07,2.07,0,0,0,273,367.44Z"/></clipPath><clipPath id="clip-path-19" transform="translate(0 -1.28)"><path class="cls-1" d="M171.19,359.3l-8.44-5a28.34,28.34,0,0,0,8.24,3.09c13.39,3.09,26.67,6.08,40.06,9.06l34.5,7.72c1.13.31,2.37.51,3.5.82,2.68.62,5.25,1.13,7.93,1.54,10.3,1.44,17.82-4.12,22.14-16.17q30-83.57,59.73-167c1.85-5.25,4.12-10.5,6.08-15.76,9.06-25.13,18.12-50.36,27.19-75.49l8.44,5c-9,25.13-18,50.36-27.19,75.49-2,5.25-4.12,10.5-6.08,15.76q-30,83.57-59.73,167c-4.33,12-11.74,17.61-22.14,16.17-2.68-.41-5.36-.93-7.93-1.54-1.13-.31-2.37-.51-3.5-.82l-34.5-7.72c-13.39-3-26.67-6-40.06-9.06A28.34,28.34,0,0,1,171.19,359.3Z"/></clipPath></defs><title>splash</title><rect class="cls-2" width="510.72" height="510.72"/><circle class="cls-3" cx="268.09" cy="223.32" r="210.7"/><circle class="cls-4" cx="268.09" cy="223.32" r="206.58"/><g class="cls-5"><g class="cls-5"><g class="cls-6"><g class="cls-5"><path d="M239.67,108.85l8.44,5c-1.34,3.4-2.78,6.9-4.12,10.3-1.34,3.81-2.78,7.52-4.12,11.33l-8.44-5c1.34-3.81,2.68-7.52,4.12-11.33,1.24-3.4,2.68-6.9,4.12-10.3" transform="translate(0 -1.28)"/></g></g></g><polygon points="235.45 123.42 243.89 128.47 243.69 128.47 235.24 123.42 235.45 123.42"/><g class="cls-5"><g class="cls-7"><g class="cls-5"><path d="M231.43,130.47l8.44,5c-2.06,6.08-4.22,12-6.28,18.12l-8.44-5c2.16-6.08,4.22-12,6.28-18.12" transform="translate(0 -1.28)"/></g></g></g><path d="M224.95,148.5c2.16-6,4.33-12,6.49-18-2.06,6.08-4.22,12-6.28,18.12A.36.36,0,0,0,224.95,148.5Z" transform="translate(0 -1.28)"/><g class="cls-5"><g class="cls-8"><g class="cls-5"><path d="M235.24,124.71l8.44,5c-4,11-7.93,22-11.95,33.06l-8.44-5c4-11,8-22,11.95-33.06" transform="translate(0 -1.28)"/></g></g></g><polygon points="284.88 64.83 293.32 69.87 293.32 70.08 284.88 65.03 284.88 64.83"/><g class="cls-5"><g class="cls-9"><g class="cls-5"><path d="M303,70.13l8.44,5-18-4-8.44-5c6,1.34,11.95,2.68,18,4" transform="translate(0 -1.28)"/></g></g></g><g class="cls-5"><g class="cls-10"><g class="cls-5"><path d="M257.59,70.75l8.44,5-.1.1-8.44-5a.1.1,0,0,0,.1-.1" transform="translate(0 -1.28)"/><path d="M257.49,70.85l8.44,5c-.21.31-.51.51-.72.82l-8.44-5a2.78,2.78,0,0,0,.72-.82" transform="translate(0 -1.28)"/><path d="M256.77,71.67l8.44,5c-.21.31-.41.51-.62.82l-8.44-5a5.71,5.71,0,0,0,.62-.82" transform="translate(0 -1.28)"/><path d="M256.15,72.5l8.44,5c-.21.31-.41.51-.62.82l-8.44-5a5.71,5.71,0,0,0,.62-.82" transform="translate(0 -1.28)"/><path d="M255.53,73.32l8.44,5-.62.93-8.44-5,.62-.93" transform="translate(0 -1.28)"/><path d="M255,74.25l8.44,5-.62.93-8.44-5,.62-.93" transform="translate(0 -1.28)"/><path d="M254.4,75.17l8.44,5c-.21.41-.41.72-.62,1.13l-8.44-5a11.23,11.23,0,0,0,.62-1.13" transform="translate(0 -1.28)"/><path d="M253.78,76.41l8.44,5c-.21.51-.51,1-.72,1.54l-8.44-5a11.06,11.06,0,0,1,.72-1.54" transform="translate(0 -1.28)"/><path d="M253.06,77.85l8.44,5c-.41.93-.72,1.85-1.13,2.78Q234.11,158.43,208,231.09l-32.13,89.28-8.44-5L199.51,226q26.26-72.76,52.42-145.41c.41-.93.72-1.85,1.13-2.78" transform="translate(0 -1.28)"/><path d="M167.48,315.33l8.44,5c-1.85,5.25-3.71,10.5-5.66,15.65a28.4,28.4,0,0,0-.82,2.78l-8.44-5a28.41,28.41,0,0,1,.82-2.78c2-5.15,3.81-10.4,5.66-15.65" transform="translate(0 -1.28)"/><path d="M161,333.76l8.44,5c-.72,2.68-1.24,5.46-2,8.14l-8.44-5c.72-2.68,1.24-5.36,2-8.14" transform="translate(0 -1.28)"/></g></g></g><g class="cls-5"><g class="cls-11"><g class="cls-5"><path d="M251.93,88.77l8.44,5q-42.33,117.71-84.65,235l-8.44-5q42.48-117.55,84.65-235" transform="translate(0 -1.28)"/></g></g></g><polygon points="332.15 75.43 340.59 80.48 340.59 80.69 332.15 75.54 332.15 75.43"/><g class="cls-5"><g class="cls-12"><g class="cls-5"><path d="M351.82,81l8.44,5c-6.59-1.44-13.08-3-19.67-4.43l-8.44-5c6.59,1.54,13.18,3,19.67,4.43" transform="translate(0 -1.28)"/></g></g></g><polygon class="cls-13" points="351.82 79.76 360.26 84.81 360.26 85.01 351.82 79.97 351.82 79.76"/><path class="cls-14" d="M351.82,81l-.1.21c-6.59-1.44-13.08-3-19.67-4.43l.1-.21C338.74,78.16,345.33,79.6,351.82,81Z" transform="translate(0 -1.28)"/><g class="cls-5"><g class="cls-15"><g class="cls-5"><path class="cls-16" d="M351.82,81.25l8.44,5c-6.59-1.44-13.08-3-19.67-4.43l-8.44-5c6.49,1.54,13.08,3,19.67,4.43" transform="translate(0 -1.28)"/></g></g></g><polygon points="203.94 361.1 212.38 366.15 212.38 366.36 203.94 361.31 203.94 361.1"/><g class="cls-5"><g class="cls-17"><g class="cls-5"><path d="M361.09,113.17l8.44,5Q314.85,106,260.47,93.81l-8.44-5c36.25,8.14,72.5,16.27,109.06,24.41" transform="translate(0 -1.28)"/></g></g></g><g class="cls-5"><g class="cls-18"><g class="cls-5"><path class="cls-19" d="M361.09,113.17l8.44,5q-42.33,117.4-84.65,235l-8.44-5q42.48-117.71,84.65-235" transform="translate(0 -1.28)"/></g></g></g><g class="cls-5"><g class="cls-20"><g class="cls-5"><path d="M369.84,95.77l8.44,5C345.54,191.75,313.1,282,280.66,372.17l-8.44-5c32.34-90.21,64.88-180.42,97.63-271.36" transform="translate(0 -1.28)"/></g></g></g><g class="cls-5"><g class="cls-21"><g class="cls-5"><path class="cls-22" d="M369.84,95.77l8.44,5a23.63,23.63,0,0,1-.21,4.74l-8.44-5a23.63,23.63,0,0,0,.21-4.74" transform="translate(0 -1.28)"/><path class="cls-23" d="M369.63,100.51l8.44,5c-.21,1.13-.41,2.16-.72,3.3l-8.44-5a30.94,30.94,0,0,0,.72-3.3" transform="translate(0 -1.28)"/><path class="cls-24" d="M368.91,103.8l8.44,5c-.41,1.44-.93,2.88-1.44,4.33l-8.44-5c.51-1.44,1-2.88,1.44-4.33" transform="translate(0 -1.28)"/><path class="cls-25" d="M367.47,108.13l8.44,5c0,.1,0,.1-.1.21-1.65,4.43-3.19,9-4.84,13.39-4.84,13.39-9.68,26.88-14.52,40.27q-35.07,97.16-70,194.43c-.31.82-.62,1.65-.93,2.37l-8.34-5c.31-.82.62-1.54.93-2.37q35.07-97.16,70-194.43c4.84-13.39,9.68-26.88,14.52-40.27,1.65-4.43,3.19-9,4.84-13.39v-.21" transform="translate(0 -1.28)"/><path class="cls-26" d="M277.16,358.78l8.44,5c-1.24,2.88-2.78,5.77-4.12,8.65l-8.44-5c1.34-2.88,2.78-5.77,4.12-8.65" transform="translate(0 -1.28)"/></g></g></g><g class="cls-5"><g class="cls-27"><g class="cls-5"><path d="M366.24,83.62l8.44,5a.1.1,0,0,1,.1.1l-8.44-5c-.1,0-.1,0-.1-.1" transform="translate(0 -1.28)"/><path d="M366.34,83.72l8.44,5c.51.31,1.13.72,1.65,1l-8.44-5c-.62-.31-1.13-.72-1.65-1" transform="translate(0 -1.28)"/><path d="M367.88,84.75l8.44,5a17.6,17.6,0,0,1,1.44,1.13l-8.44-5c-.41-.31-.93-.72-1.44-1.13" transform="translate(0 -1.28)"/><path d="M369.43,85.88l8.44,5c.1.1.21.1.31.21s.31.31.51.41l-8.44-5c-.21-.1-.31-.31-.51-.41s-.31-.1-.31-.21" transform="translate(0 -1.28)"/><path d="M370.15,86.6l8.44,5a2.73,2.73,0,0,1,.51.62l-8.44-5a2.73,2.73,0,0,0-.51-.62" transform="translate(0 -1.28)"/><path d="M370.66,87.12l8.44,5c.21.21.31.41.51.62l-8.44-5c-.21-.21-.31-.41-.51-.62" transform="translate(0 -1.28)"/><path d="M371.18,87.74l8.44,5a2.15,2.15,0,0,1,.41.62l-8.44-5c-.1-.21-.31-.41-.41-.62" transform="translate(0 -1.28)"/><path d="M371.59,88.36l8.44,5a4.48,4.48,0,0,1,.41.72l-8.44-5a2.58,2.58,0,0,0-.41-.72" transform="translate(0 -1.28)"/><path d="M372,89.08l8.44,5c.1.21.31.51.41.72l-8.44-5a2.58,2.58,0,0,0-.41-.72" transform="translate(0 -1.28)"/><path d="M372.41,89.8l8.44,5a7.1,7.1,0,0,0,.31.82l-8.44-5a7.1,7.1,0,0,1-.31-.82" transform="translate(0 -1.28)"/><path d="M372.72,90.72l8.44,5c.1.41.21.72.31,1.13l-8.44-5a3.65,3.65,0,0,0-.31-1.13" transform="translate(0 -1.28)"/><path d="M373,91.75l8.44,5c.1.62.21,1.13.31,1.75l-8.44-5a5.71,5.71,0,0,0-.31-1.75" transform="translate(0 -1.28)"/><path d="M373.34,93.61l8.44,5a16.74,16.74,0,0,1-.1,3.91l-8.44-5a16.74,16.74,0,0,0,.1-3.91" transform="translate(0 -1.28)"/><path d="M373.24,97.52l8.44,5c-.1.82-.31,1.65-.51,2.57l-8.44-5c.21-.93.41-1.75.51-2.57" transform="translate(0 -1.28)"/><path d="M372.72,100.1l8.44,5-.62,1.85-8.44-5,.62-1.85" transform="translate(0 -1.28)"/></g></g></g><g class="cls-5"><g class="cls-28"><g class="cls-5"><path d="M223.3,366.71l8.44,5-19.26-4.33-8.44-5c6.38,1.44,12.77,2.88,19.26,4.33" transform="translate(0 -1.28)"/></g></g></g><g class="cls-5"><g class="cls-29"><g class="cls-5"><path d="M352.64,151.07l8.44,5c-3.81,10.61-7.62,21.32-11.53,31.92l-8.44-5c3.91-10.61,7.72-21.32,11.53-31.92" transform="translate(0 -1.28)"/></g></g></g><polygon points="305.37 281.6 313.82 286.65 313.71 286.55 305.27 281.5 305.37 281.6"/><g class="cls-5"><g class="cls-30"><g class="cls-5"><path d="M305.27,282.78l8.44,5c-3.4,9.37-6.69,18.64-10.09,28l-8.44-5c3.3-9.37,6.69-18.64,10.09-28" transform="translate(0 -1.28)"/></g></g></g><path class="cls-31" d="M361.09,113.17q-42.33,117.4-84.65,235C240,340,203.73,331.91,167.38,323.77Q209.7,206.22,252,88.77C288.28,96.9,324.53,105,361.09,113.17Z" transform="translate(0 -1.28)"/><g class="cls-5"><g class="cls-32"><g class="cls-5"><path class="cls-33" d="M276.44,348.28l8.44,5c-36.46-8.14-72.7-16.27-109.06-24.41l-8.44-5c36.46,8,72.6,16.17,109.06,24.41" transform="translate(0 -1.28)"/></g></g></g><g class="cls-5"><g class="cls-34"><g class="cls-5"><path class="cls-16" d="M273,367.44l8.44,5a2.07,2.07,0,0,1-.82-.41l-8.44-5a2.07,2.07,0,0,0,.82.41" transform="translate(0 -1.28)"/></g></g></g><path class="cls-14" d="M369.84,95.77c.31,4.63-.93,8.55-2.37,12.46-1.65,4.43-3.19,9-4.84,13.39C357.79,135,353,148.5,348.11,161.88Q313,259,278.08,356.31c-1.34,3.71-3.4,7.31-5,11a2.07,2.07,0,0,1-.82-.41Q320.72,231.91,369.84,95.77Z" transform="translate(0 -1.28)"/><path d="M372.11,101.95c-9,25.13-18,50.36-27.19,75.49-2,5.25-4.12,10.5-6.08,15.76q-30,83.57-59.73,167c-4.33,12-11.74,17.61-22.14,16.17-2.68-.41-5.36-.93-7.93-1.54-1.13-.31-2.37-.51-3.5-.82L211,366.3c-13.39-3-26.67-6-40.06-9.06a30.68,30.68,0,0,1-8.55-3.3c-6.28-3.91-7.62-10.4-4.43-19.36q26-72,51.9-144.07c2.47-7,5.36-13.9,7.83-20.91l7.41-21.32c4.94-13.18,9.68-26.47,14.42-39.75-1.34,3.4-2.78,6.9-4.12,10.3-1.34,3.81-2.78,7.52-4.12,11.33,2.16-6.18,4.22-12.25,6.38-18.43a19.25,19.25,0,0,1,1.75-3.19,27.61,27.61,0,0,1,.72-2.78c3.5-9.78,7-19.67,10.61-29.45,3.6-10,10.4-15.34,19.15-15.14a39.19,39.19,0,0,1,6.08.72c13.7,3.09,27.39,6.08,41.09,9.17,14.21,3.19,28.42,6.38,42.53,9.68a23.4,23.4,0,0,1,9.78,5C373.75,89.69,374.47,95.46,372.11,101.95ZM276.44,348.28q42.33-117.71,84.65-235Q306.4,101.07,252,88.87q-42.33,117.71-84.65,235c36.46,8,72.6,16.17,109.06,24.41M160,342c32.44-90.21,64.88-180.32,97.63-271.25a28.68,28.68,0,0,0-5.66,9.89Q225.67,153.39,199.51,226c-12.56,35-25.23,69.92-37.69,104.94-1.24,3.6-1.85,7.31-2.78,10.92a2.85,2.85,0,0,0,.93.1M348.11,162c4.84-13.39,9.68-26.88,14.52-40.27,1.65-4.43,3.19-9,4.84-13.39,1.44-3.91,2.68-7.83,2.37-12.46C337.09,186.81,304.65,277,272.21,367.23a2.07,2.07,0,0,1,.82.41c1.65-3.71,3.71-7.31,5-11q35.07-97.47,70-194.63m-6.8,21,11.43-31.82-.1-.21c-3.81,10.61-7.62,21.32-11.53,31.92l.21.1M223.5,157.77c4-11,7.93-22,11.95-33.06h-.1c-4,11-7.93,22-11.95,33.06h.1m71.78,153c3.4-9.37,6.69-18.64,10.09-28h-.21c-3.4,9.37-6.69,18.64-10.09,28h.21m-118-24.61c3.5-9.68,7-19.46,10.5-29.14h-.1c-3.5,9.68-7,19.36-10.5,29.14h.1M332.15,76.72l-.1.21c6.59,1.44,13.08,3,19.67,4.43l.1-.21c-6.49-1.54-13.08-3-19.67-4.43M284.88,66.11l-.1.21,18,4,.1-.21c-6-1.34-11.95-2.68-18-4M223.19,366.92v-.1l-19.26-4.33v.1l19.26,4.33" transform="translate(0 -1.28)"/><g class="cls-5"><g class="cls-35"><g class="cls-5"><path d="M372.11,101.95l8.44,5c-2,5.36-3.81,10.71-5.77,16.07l-8.44-5c2-5.36,3.81-10.71,5.77-16.07" transform="translate(0 -1.28)"/><path d="M366.34,118l8.44,5c-7.11,19.77-14.21,39.65-21.42,59.42-2,5.25-4.12,10.5-6.08,15.76l-8.44-5c1.85-5.25,4.12-10.5,6.08-15.76q10.81-29.66,21.42-59.42" transform="translate(0 -1.28)"/><path d="M338.95,193.19l8.44,5h0q-30,83.57-59.73,167h0l-8.44-5h0q29.81-83.41,59.73-167h0" transform="translate(0 -1.28)"/><path d="M279.11,360.33l8.44,5-.93,2.47-8.44-5,.93-2.47" transform="translate(0 -1.28)"/><path d="M278.19,362.8l8.44,5c-.31.62-.51,1.24-.82,1.85l-8.44-5a14.59,14.59,0,0,1,.82-1.85" transform="translate(0 -1.28)"/><path d="M277.26,364.65l8.44,5c-.21.51-.51,1-.72,1.44l-8.44-5a9.42,9.42,0,0,0,.72-1.44" transform="translate(0 -1.28)"/><path d="M276.54,366.1l8.44,5c-.21.41-.51.82-.72,1.24l-8.44-5c.21-.41.51-.82.72-1.24" transform="translate(0 -1.28)"/><path d="M275.82,367.33l8.44,5a6.25,6.25,0,0,1-.72,1l-8.44-5a6.25,6.25,0,0,0,.72-1" transform="translate(0 -1.28)"/><path d="M275.1,368.36l8.44,5-.62.93-8.44-5,.62-.93" transform="translate(0 -1.28)"/><path d="M274.48,369.29l8.44,5c-.21.31-.41.51-.62.82l-8.44-5c.21-.31.41-.51.62-.82" transform="translate(0 -1.28)"/><path d="M273.86,370.11l8.44,5a4.48,4.48,0,0,1-.62.72l-8.44-5a3.85,3.85,0,0,1,.62-.72" transform="translate(0 -1.28)"/><path d="M273.14,370.83l8.44,5a4.76,4.76,0,0,1-.72.72l-8.44-5a2.41,2.41,0,0,0,.72-.72" transform="translate(0 -1.28)"/><path d="M272.52,371.55l8.44,5a4.76,4.76,0,0,0-.72.72l-8.44-5a4.76,4.76,0,0,1,.72-.72" transform="translate(0 -1.28)"/><path d="M271.8,372.28l8.44,5c-.21.21-.51.41-.72.62l-8.44-5a4.48,4.48,0,0,1,.72-.62" transform="translate(0 -1.28)"/><path d="M271,372.89l8.44,5c-.31.21-.51.41-.82.62l-8.44-5c.31-.21.51-.41.82-.62" transform="translate(0 -1.28)"/><path d="M270.15,373.51l8.44,5a9.06,9.06,0,0,1-1,.62l-8.44-5a2.74,2.74,0,0,0,1-.62" transform="translate(0 -1.28)"/><path d="M269.12,374.23l8.44,5a6.29,6.29,0,0,1-1.44.72l-8.44-5a6.29,6.29,0,0,0,1.44-.72" transform="translate(0 -1.28)"/><path d="M267.79,375l8.44,5a17.57,17.57,0,0,1-10.71,1.44c-2.68-.41-5.36-.93-7.93-1.54-1.13-.31-2.37-.51-3.5-.82l-34.5-7.72c-13.39-3-26.67-6-40.06-9.06a28.34,28.34,0,0,1-8.24-3.09l-8.44-5a28.34,28.34,0,0,0,8.24,3.09c13.39,3.09,26.67,6.08,40.06,9.06l34.5,7.72c1.13.31,2.37.51,3.5.82,2.68.62,5.25,1.13,7.93,1.54A17.79,17.79,0,0,0,267.79,375" transform="translate(0 -1.28)"/></g></g></g></g><path class="cls-36" d="M232.46,171.56c8.44-2.78,16.68-5.36,25.33-8.14,12.36,38.52,25.33,76.72,34.7,116.27-.82.41-1.44.72-2.16,1-5,1.65-10.2,3.19-15.34,4.94-1.85.62-2.88.31-3.6-1.65-7.21-19.77-14.73-39.44-21.63-59.32-5.77-16.58-10.92-33.37-16.37-50.15C233.08,173.62,232.87,172.7,232.46,171.56ZM275,281c.93-2.57-31.2-103.5-34-108.75-.82.31-1.75.62-2.88.93C249.76,209.26,260.89,245.3,275,281Z" transform="translate(0 -1.28)"/><path class="cls-36" d="M256.77,160.85c-8.55,2.78-16.68,5.36-25.13,8.14-1.85-5.87-3.71-11.53-5.56-17.2-7.93-24.61-16-49.33-23.89-73.94-1.44-4.63-.93-5.77,3.6-7.21,5.15-1.65,10.2-3.3,15.34-4.94,3.3-1,4.94-.31,6,2.88,9.78,30.17,19.46,60.24,29.25,90.42C256.56,159.52,256.56,160.13,256.77,160.85Zm-18.43,2.78c-9.68-29.86-19.15-59.21-28.73-88.87-2.78,1.34-2.27,3.3-1.65,5.36l26.57,82.18a13.16,13.16,0,0,0,.93,2.27C236.48,164.25,237.41,163.94,238.33,163.64Z" transform="translate(0 -1.28)"/><path class="cls-36" d="M222.16,149.32a19.17,19.17,0,0,1,1,3.19c0,2.16-.1,4.74-2.68,5.46s-3.81-1.34-4.63-3.3c-4.43-9.58-8.65-19.15-13-28.73-3.6-8.24-7.21-16.58-10.81-24.82-4.12-9.27-1.54-17.71,7.41-23.27,1.65,5,3.3,10.09,4.84,15-.21.1-.21.21-.31.31-6.59,1-6.9,1.44-4.63,8,5.25,15.45,10.71,30.89,16.17,46.34C216.6,150.76,217.32,150.87,222.16,149.32Z" transform="translate(0 -1.28)"/><path class="cls-36" d="M273,288.65c6.28-2.06,11.95-3.91,17.61-5.66.72-.21,1.54-.41,2.68-.72,1.13,5.25,2.47,10.3,3.19,15.45,1,7.72,1.75,15.55,2.47,23.27.21,2.27-.82,3.6-3.19,4.22-1.85.51-3.09.21-4-1.34-3.19-5.25-6.69-10.3-9.47-15.76C279,301.94,276.23,295.45,273,288.65Zm11.33-2.06c4,12.36,7.93,24.51,11.84,36.66.31-.1.62-.1.93-.21,1-13.28-2.68-25.85-5.66-38.82C288.9,285.15,286.73,285.77,284.37,286.59Z" transform="translate(0 -1.28)"/><path class="cls-36" d="M220.31,63.33l-16,5.15a90.16,90.16,0,0,1-3.4-11c-.21-1.13,1.24-3.19,2.47-3.81a51.59,51.59,0,0,1,8.75-3A3.72,3.72,0,0,1,217,53C218.15,56.33,219.08,59.73,220.31,63.33Zm-1.65-.62c-.82-2.37-1.44-4.53-2.16-6.69-1.34-4.12-3-4.74-6.8-2.57,1.13,3.6,2.37,7.21,3.5,11C215,63.85,216.6,63.33,218.66,62.71Z" transform="translate(0 -1.28)"/><path class="cls-36" d="M299.71,326c-.82,2.06-1.34,3.4-1.85,4.74-1.24-.82-2.37-1.54-4.22-2.78C296,327.17,297.34,326.76,299.71,326Z" transform="translate(0 -1.28)"/><path class="cls-37" d="M275,281c-14.11-35.73-25.23-71.78-36.87-107.82,1.13-.41,2-.62,2.88-.93C243.79,177.54,275.92,278.46,275,281Z" transform="translate(0 -1.28)"/><path class="cls-37" d="M238.33,163.64c-.93.31-1.85.62-2.88.93-.31-.82-.62-1.54-.93-2.27L208,80.12c-.62-2.06-1.24-4,1.65-5.36C219.18,104.42,228.65,133.87,238.33,163.64Z" transform="translate(0 -1.28)"/><path class="cls-37" d="M284.37,286.59c2.37-.72,4.53-1.44,7.11-2.27,3.09,12.87,6.8,25.54,5.66,38.82-.31.1-.62.1-.93.21C292.3,311.1,288.38,299,284.37,286.59Z" transform="translate(0 -1.28)"/><path class="cls-37" d="M218.66,62.71c-2.06.62-3.6,1.13-5.46,1.75-1.24-3.71-2.37-7.41-3.5-11,3.91-2.16,5.46-1.65,6.8,2.57C217.22,58.08,217.84,60.24,218.66,62.71Z" transform="translate(0 -1.28)"/><text class="cls-38" transform="translate(181.33 490.05)">barOrder</text></svg>